<?xml version="1.0" encoding="utf-8"?>
<!-- Generator: Adobe Illustrator 23.1.1, SVG Export Plug-In . SVG Version: 6.00 Build 0)  -->
<svg version="1.1" id="Layer_1" xmlns="http://www.w3.org/2000/svg" xmlns:xlink="http://www.w3.org/1999/xlink" x="0px" y="0px"
	 viewBox="0 0 93.9325867 61.6114464" style="enable-background:new 0 0 93.9325867 61.6114464;" xml:space="preserve">
<style type="text/css">
	.st0{fill:#D1D2D9;}
	.st1{fill:#0063FF;}
	.st2{fill:#F4F5F8;}
	.st3{opacity:0.11;}
	.st4{fill:#336EE5;}
	.st5{fill:#FFFFFF;}
	.st6{enable-background:new    ;}
	.st7{fill:#2444A2;}
	.st8{fill:#122E7D;}
	.st9{fill:#0B266F;}
	.st10{fill:#0061FF;}
	.st11{fill:#0060FF;}
	.st12{fill:#005DFF;}
	.st13{fill:#CADEFC;}
	.st14{fill:none;}
	.st15{opacity:0.3;}
	.st16{clip-path:url(#SVGID_2_);enable-background:new    ;}
	.st17{fill:#E6F2FC;}
	.st18{fill:#E7F2FC;}
	.st19{fill:#E9F3FD;}
	.st20{fill:#EAF4FD;}
	.st21{fill:#EBF4FD;}
	.st22{fill:#ECF5FD;}
	.st23{clip-path:url(#SVGID_4_);enable-background:new    ;}
	.st24{fill:#E4F1FC;}
	.st25{fill:#EEF6FD;}
	.st26{fill:#E5F1FC;}
	.st27{fill:#F2F8FE;}
	.st28{clip-path:url(#SVGID_6_);}
	.st29{opacity:0.6;fill:#001959;}
	.st30{opacity:0.8392157;fill:#001959;}
	.st31{opacity:0.9372549;fill:#001959;}
	.st32{clip-path:url(#SVGID_8_);enable-background:new    ;}
	.st33{clip-path:url(#SVGID_10_);enable-background:new    ;}
	.st34{fill:#609FFC;}
	.st35{fill:#5C9DFC;}
	.st36{fill:#589AFC;}
	.st37{fill:#5498FC;}
	.st38{fill:#5095FD;}
	.st39{fill:#4C93FD;}
	.st40{fill:#4890FD;}
	.st41{fill:#448EFD;}
	.st42{fill:#5E9FFC;}
	.st43{fill:#3B88FD;}
	.st44{clip-path:url(#SVGID_12_);enable-background:new    ;}
	.st45{clip-path:url(#SVGID_14_);enable-background:new    ;}
	.st46{clip-path:url(#SVGID_16_);enable-background:new    ;}
	.st47{clip-path:url(#SVGID_18_);enable-background:new    ;}
	.st48{fill:#2E80FE;}
	.st49{clip-path:url(#SVGID_20_);enable-background:new    ;}
	.st50{fill:#00164D;}
	.st51{clip-path:url(#SVGID_22_);}
	.st52{fill:#E5E5E5;}
	.st53{fill:#BFBFBF;}
	.st54{fill:#001345;}
	.st55{fill:#000D30;}
	.st56{fill:#FF9D5C;}
	.st57{fill:#2176FC;}
	.st58{fill:#6DA2F5;}
	.st59{fill:#3582FA;}
	.st60{fill:#FCFCFC;}
	.st61{fill:#F5F5F5;}
	.st62{fill:#FAFAFA;}
	.st63{clip-path:url(#SVGID_32_);}
	.st64{clip-path:url(#SVGID_34_);}
	.st65{fill:#F37715;}
	.st66{fill:#F47D22;}
	.st67{fill:#F58D45;}
	.st68{clip-path:url(#SVGID_36_);enable-background:new    ;}
	.st69{clip-path:url(#SVGID_38_);enable-background:new    ;}
	.st70{clip-path:url(#SVGID_40_);enable-background:new    ;}
	.st71{clip-path:url(#SVGID_42_);enable-background:new    ;}
	.st72{clip-path:url(#SVGID_44_);enable-background:new    ;}
	.st73{clip-path:url(#SVGID_46_);enable-background:new    ;}
	.st74{fill:#F26D00;}
	.st75{fill:#2E7BFF;}
	.st76{opacity:0.6;fill:#0063FF;}
	.st77{opacity:0.6;}
	.st78{fill:none;stroke:#0063FF;stroke-width:0.1;stroke-miterlimit:10;}
	.st79{fill:none;stroke:#0063FF;stroke-width:0.1;stroke-miterlimit:10;stroke-dasharray:0.994576,0.994576;}
	.st80{fill:none;stroke:#001959;stroke-width:0.1;stroke-miterlimit:10;}
	.st81{fill:none;stroke:#001959;stroke-width:0.1;stroke-miterlimit:10;stroke-dasharray:0.994576,0.994576;}
	.st82{opacity:0.6;fill:none;stroke:#FFFFFF;stroke-miterlimit:10;stroke-dasharray:1;}
	.st83{clip-path:url(#SVGID_48_);enable-background:new    ;}
	.st84{clip-path:url(#SVGID_50_);enable-background:new    ;}
	.st85{clip-path:url(#SVGID_52_);}
	.st86{clip-path:url(#SVGID_54_);enable-background:new    ;}
	.st87{clip-path:url(#SVGID_56_);enable-background:new    ;}
	.st88{clip-path:url(#SVGID_58_);enable-background:new    ;}
	.st89{clip-path:url(#SVGID_60_);enable-background:new    ;}
	.st90{clip-path:url(#SVGID_62_);enable-background:new    ;}
	.st91{clip-path:url(#SVGID_64_);enable-background:new    ;}
	.st92{clip-path:url(#SVGID_66_);enable-background:new    ;}
	.st93{fill:#002883;}
	.st94{clip-path:url(#SVGID_68_);}
	.st95{clip-path:url(#SVGID_70_);}
	.st96{clip-path:url(#SVGID_72_);enable-background:new    ;}
	.st97{clip-path:url(#SVGID_74_);enable-background:new    ;}
	.st98{clip-path:url(#SVGID_76_);}
	.st99{clip-path:url(#SVGID_78_);enable-background:new    ;}
	.st100{clip-path:url(#SVGID_80_);enable-background:new    ;}
	.st101{clip-path:url(#SVGID_82_);enable-background:new    ;}
	.st102{clip-path:url(#SVGID_84_);enable-background:new    ;}
	.st103{clip-path:url(#SVGID_86_);enable-background:new    ;}
	.st104{clip-path:url(#SVGID_88_);enable-background:new    ;}
	.st105{clip-path:url(#SVGID_90_);enable-background:new    ;}
	.st106{clip-path:url(#SVGID_92_);}
	.st107{clip-path:url(#SVGID_94_);enable-background:new    ;}
	.st108{clip-path:url(#SVGID_96_);enable-background:new    ;}
	.st109{clip-path:url(#SVGID_98_);enable-background:new    ;}
	.st110{clip-path:url(#SVGID_100_);enable-background:new    ;}
	.st111{clip-path:url(#SVGID_102_);enable-background:new    ;}
	.st112{clip-path:url(#SVGID_104_);enable-background:new    ;}
	.st113{opacity:0.3;fill:#2E7BFF;}
	.st114{clip-path:url(#SVGID_106_);enable-background:new    ;}
	.st115{clip-path:url(#SVGID_108_);enable-background:new    ;}
	.st116{clip-path:url(#SVGID_110_);enable-background:new    ;}
	.st117{clip-path:url(#SVGID_112_);enable-background:new    ;}
	.st118{clip-path:url(#SVGID_114_);enable-background:new    ;}
	.st119{clip-path:url(#SVGID_116_);enable-background:new    ;}
	.st120{fill:#1BE0E6;}
	.st121{fill:#2CE3E8;}
	.st122{fill:#37E5EA;}
	.st123{fill:#53EBEE;}
	.st124{clip-path:url(#SVGID_118_);enable-background:new    ;}
	.st125{clip-path:url(#SVGID_120_);enable-background:new    ;}
	.st126{clip-path:url(#SVGID_122_);enable-background:new    ;}
	.st127{clip-path:url(#SVGID_124_);enable-background:new    ;}
	.st128{clip-path:url(#SVGID_126_);enable-background:new    ;}
	.st129{clip-path:url(#SVGID_128_);enable-background:new    ;}
	.st130{clip-path:url(#SVGID_130_);}
	.st131{clip-path:url(#SVGID_132_);enable-background:new    ;}
	.st132{clip-path:url(#SVGID_134_);enable-background:new    ;}
	.st133{clip-path:url(#SVGID_136_);enable-background:new    ;}
	.st134{clip-path:url(#SVGID_138_);enable-background:new    ;}
	.st135{clip-path:url(#SVGID_140_);enable-background:new    ;}
	.st136{clip-path:url(#SVGID_142_);enable-background:new    ;}
	.st137{clip-path:url(#SVGID_144_);enable-background:new    ;}
	.st138{clip-path:url(#SVGID_146_);enable-background:new    ;}
	.st139{clip-path:url(#SVGID_148_);}
	.st140{clip-path:url(#SVGID_150_);enable-background:new    ;}
	.st141{clip-path:url(#SVGID_152_);enable-background:new    ;}
	.st142{clip-path:url(#SVGID_154_);enable-background:new    ;}
	.st143{clip-path:url(#SVGID_156_);enable-background:new    ;}
	.st144{clip-path:url(#SVGID_158_);enable-background:new    ;}
	.st145{clip-path:url(#SVGID_160_);enable-background:new    ;}
	.st146{clip-path:url(#SVGID_162_);enable-background:new    ;}
	.st147{clip-path:url(#SVGID_164_);}
	.st148{clip-path:url(#SVGID_170_);}
	.st149{clip-path:url(#SVGID_172_);enable-background:new    ;}
	.st150{clip-path:url(#SVGID_174_);enable-background:new    ;}
	.st151{clip-path:url(#SVGID_176_);enable-background:new    ;}
	.st152{clip-path:url(#SVGID_178_);enable-background:new    ;}
	.st153{clip-path:url(#SVGID_180_);enable-background:new    ;}
	.st154{clip-path:url(#SVGID_182_);enable-background:new    ;}
	.st155{clip-path:url(#SVGID_184_);}
	.st156{clip-path:url(#SVGID_186_);enable-background:new    ;}
	.st157{clip-path:url(#SVGID_188_);enable-background:new    ;}
	.st158{clip-path:url(#SVGID_190_);enable-background:new    ;}
	.st159{clip-path:url(#SVGID_192_);enable-background:new    ;}
	.st160{clip-path:url(#SVGID_194_);enable-background:new    ;}
	.st161{clip-path:url(#SVGID_196_);enable-background:new    ;}
	.st162{clip-path:url(#SVGID_198_);enable-background:new    ;}
	.st163{clip-path:url(#SVGID_200_);enable-background:new    ;}
	.st164{clip-path:url(#SVGID_202_);enable-background:new    ;}
	.st165{clip-path:url(#SVGID_204_);enable-background:new    ;}
	.st166{clip-path:url(#SVGID_206_);enable-background:new    ;}
	.st167{clip-path:url(#SVGID_208_);enable-background:new    ;}
	.st168{clip-path:url(#SVGID_210_);enable-background:new    ;}
	.st169{clip-path:url(#SVGID_212_);enable-background:new    ;}
	.st170{clip-path:url(#SVGID_214_);}
	.st171{clip-path:url(#SVGID_216_);enable-background:new    ;}
	.st172{clip-path:url(#SVGID_218_);enable-background:new    ;}
	.st173{clip-path:url(#SVGID_220_);enable-background:new    ;}
	.st174{clip-path:url(#SVGID_222_);enable-background:new    ;}
	.st175{clip-path:url(#SVGID_224_);enable-background:new    ;}
	.st176{clip-path:url(#SVGID_226_);enable-background:new    ;}
	.st177{clip-path:url(#SVGID_228_);enable-background:new    ;}
	.st178{clip-path:url(#SVGID_230_);}
	.st179{clip-path:url(#SVGID_236_);}
	.st180{clip-path:url(#SVGID_238_);enable-background:new    ;}
	.st181{clip-path:url(#SVGID_240_);enable-background:new    ;}
	.st182{clip-path:url(#SVGID_242_);enable-background:new    ;}
	.st183{clip-path:url(#SVGID_244_);enable-background:new    ;}
	.st184{clip-path:url(#SVGID_246_);enable-background:new    ;}
	.st185{clip-path:url(#SVGID_248_);enable-background:new    ;}
	.st186{clip-path:url(#SVGID_250_);enable-background:new    ;}
	.st187{clip-path:url(#SVGID_252_);enable-background:new    ;}
	.st188{clip-path:url(#SVGID_254_);enable-background:new    ;}
	.st189{clip-path:url(#SVGID_256_);enable-background:new    ;}
	.st190{clip-path:url(#SVGID_258_);enable-background:new    ;}
	.st191{clip-path:url(#SVGID_260_);enable-background:new    ;}
	.st192{fill:#1B77F9;}
	.st193{fill:#0D6DFC;}
	.st194{clip-path:url(#SVGID_262_);enable-background:new    ;}
	.st195{fill:#1C78F9;}
	.st196{clip-path:url(#SVGID_264_);enable-background:new    ;}
	.st197{fill:#1975FA;}
	.st198{fill:#1874FA;}
	.st199{fill:#1673FA;}
	.st200{fill:#1572FA;}
	.st201{fill:#1472FB;}
	.st202{fill:#1371FB;}
	.st203{fill:#1270FB;}
	.st204{fill:#116FFB;}
	.st205{fill:#0869FD;}
	.st206{fill:none;stroke:url(#SVGID_265_);stroke-miterlimit:10;}
	.st207{fill:none;stroke:url(#SVGID_266_);stroke-miterlimit:10;}
	.st208{fill:none;stroke:url(#SVGID_267_);stroke-miterlimit:10;}
	.st209{fill:none;stroke:url(#SVGID_268_);stroke-miterlimit:10;}
	.st210{fill:none;stroke:url(#SVGID_269_);stroke-miterlimit:10;}
	.st211{fill:none;stroke:url(#SVGID_270_);stroke-miterlimit:10;}
	.st212{fill:none;stroke:url(#SVGID_271_);stroke-miterlimit:10;}
	.st213{fill:#004ED6;}
	.st214{opacity:0.6;fill:#14BBC4;}
	.st215{opacity:0.2;fill:#03002D;}
	.st216{opacity:0.3;fill:#0F054C;}
	.st217{fill:url(#SVGID_272_);}
	.st218{fill:#01266D;}
	.st219{fill:#023381;}
	.st220{fill:#012165;}
	.st221{fill:#0161F4;}
	.st222{clip-path:url(#SVGID_274_);}
	.st223{fill:#003AAC;}
	.st224{fill:#5C95FF;}
	.st225{fill:#015FED;}
	.st226{fill:#025BDA;}
	.st227{fill:#001959;}
	.st228{fill:#5B95FF;}
	.st229{fill:none;stroke:#FFFFFF;stroke-width:1.5;stroke-miterlimit:10;}
	.st230{fill:none;stroke:#FFFFFF;stroke-width:1.5;stroke-linecap:round;stroke-miterlimit:10;}
	.st231{fill:none;stroke:#0063FF;stroke-width:1.5;stroke-miterlimit:10;}
	.st232{fill:none;stroke:#0063FF;stroke-width:1.5;stroke-linecap:round;stroke-miterlimit:10;}
	.st233{fill:none;stroke:#FFFFFF;stroke-linecap:round;stroke-miterlimit:10;}
	.st234{fill:none;stroke:#0063FF;stroke-linecap:round;stroke-miterlimit:10;}
	.st235{opacity:0.53;}
	.st236{opacity:0.45;fill:url(#SVGID_275_);}
	.st237{opacity:0.57;}
	.st238{fill:#E2EDFF;}
	.st239{clip-path:url(#SVGID_277_);enable-background:new    ;}
	.st240{fill:#A7C9FF;}
	.st241{fill:#ABCCFF;}
	.st242{fill:#B0CEFF;}
	.st243{fill:#B4D1FF;}
	.st244{fill:#B8D4FF;}
	.st245{fill:#BCD6FF;}
	.st246{fill:#C0D9FF;}
	.st247{fill:#C4DBFF;}
	.st248{fill:#A3C7FF;}
	.st249{fill:#9FC4FF;}
	.st250{fill:#9BC2FF;}
	.st251{opacity:0.4;}
	.st252{clip-path:url(#SVGID_279_);enable-background:new    ;}
	.st253{clip-path:url(#SVGID_281_);enable-background:new    ;}
	.st254{clip-path:url(#SVGID_283_);enable-background:new    ;}
	.st255{opacity:0.45;fill:url(#SVGID_284_);}
	.st256{clip-path:url(#SVGID_286_);enable-background:new    ;}
	.st257{clip-path:url(#SVGID_288_);enable-background:new    ;}
	.st258{clip-path:url(#SVGID_290_);enable-background:new    ;}
	.st259{clip-path:url(#SVGID_292_);enable-background:new    ;}
	.st260{opacity:0.45;fill:url(#SVGID_293_);}
	.st261{clip-path:url(#SVGID_295_);enable-background:new    ;}
	.st262{clip-path:url(#SVGID_297_);enable-background:new    ;}
	.st263{clip-path:url(#SVGID_299_);enable-background:new    ;}
	.st264{clip-path:url(#SVGID_301_);}
	.st265{fill:#98999B;}
	.st266{clip-path:url(#SVGID_303_);}
	.st267{clip-path:url(#SVGID_305_);}
	.st268{clip-path:url(#SVGID_309_);enable-background:new    ;}
	.st269{fill:#4096FF;}
	.st270{fill:#1271FF;}
	.st271{clip-path:url(#SVGID_311_);}
	.st272{fill:#1D7AFF;}
	.st273{fill:#2D87FF;}
	.st274{fill:none;stroke:#FFFFFF;stroke-width:6;stroke-linecap:round;stroke-miterlimit:10;}
	.st275{clip-path:url(#SVGID_313_);enable-background:new    ;}
	.st276{fill:#057CFF;}
	.st277{fill:#057BFF;}
	.st278{fill:#057AFF;}
	.st279{fill:#0579FF;}
	.st280{fill:#0478FF;}
	.st281{fill:#0477FF;}
	.st282{fill:#0476FF;}
	.st283{fill:#0475FF;}
	.st284{fill:#0372FF;}
	.st285{clip-path:url(#SVGID_315_);enable-background:new    ;}
	.st286{clip-path:url(#SVGID_317_);enable-background:new    ;}
	.st287{clip-path:url(#SVGID_319_);enable-background:new    ;}
	.st288{clip-path:url(#SVGID_321_);enable-background:new    ;}
	.st289{fill:#036FFF;}
	.st290{clip-path:url(#SVGID_323_);enable-background:new    ;}
	.st291{clip-path:url(#SVGID_325_);enable-background:new    ;}
	.st292{clip-path:url(#SVGID_327_);enable-background:new    ;}
	.st293{clip-path:url(#SVGID_329_);enable-background:new    ;}
	.st294{clip-path:url(#SVGID_331_);enable-background:new    ;}
	.st295{clip-path:url(#SVGID_333_);enable-background:new    ;}
	.st296{clip-path:url(#SVGID_335_);enable-background:new    ;}
	.st297{fill:none;stroke:#0063FF;stroke-linecap:round;stroke-miterlimit:10;stroke-dasharray:8,6;}
	.st298{fill:#6976F4;stroke:#6976F4;}
	.st299{fill:none;stroke:#6976F4;stroke-width:2;}
	.st300{fill:#E3147C;}
	.st301{fill:none;stroke:#E3147C;}
	.st302{fill:#684FF1;}
	.st303{fill:none;stroke:#001959;stroke-width:2;stroke-miterlimit:10;}
	.st304{fill:#6976F4;}
	.st305{fill:none;stroke:#E3147C;stroke-width:2;stroke-miterlimit:10;}
	.st306{opacity:0.22;fill:#684FF1;}
	.st307{fill:none;stroke:#684FF1;stroke-width:2;stroke-miterlimit:10;}
	.st308{fill:none;stroke:#FFFFFF;stroke-width:1.5;stroke-linecap:round;stroke-linejoin:round;}
	.st309{fill:none;stroke:#FFFFFF;stroke-width:2;stroke-linecap:round;stroke-linejoin:round;}
	.st310{fill-rule:evenodd;clip-rule:evenodd;fill:#D1D2D9;}
	.st311{fill:none;stroke:#0063FF;stroke-width:1.5;stroke-linecap:round;stroke-linejoin:round;}
	.st312{fill:none;stroke:#0063FF;stroke-width:2;stroke-linecap:round;stroke-linejoin:round;}
	.st313{fill-rule:evenodd;clip-rule:evenodd;fill:#001959;}
	.st314{fill:#003659;}
	.st315{fill:none;stroke:#000000;stroke-width:2;stroke-linecap:round;stroke-linejoin:round;}
	.st316{fill:#EFEFF2;}
	.st317{opacity:0.22;fill:#0063FF;}
	.st318{fill-rule:evenodd;clip-rule:evenodd;fill:#B8CFFF;}
	.st319{fill-rule:evenodd;clip-rule:evenodd;fill:#FFFFFF;}
	.st320{fill-rule:evenodd;clip-rule:evenodd;fill:#5CBFAB;}
	.st321{fill-rule:evenodd;clip-rule:evenodd;fill:#0063FF;}
	.st322{fill-rule:evenodd;clip-rule:evenodd;fill:#FEFEFE;}
	.st323{opacity:0.05;}
	.st324{opacity:0.05;enable-background:new    ;}
	.st325{fill-rule:evenodd;clip-rule:evenodd;fill:#EEF8FF;}
	.st326{fill:#FEFEFE;}
	.st327{fill-rule:evenodd;clip-rule:evenodd;fill:#FFFFFF;stroke:#001959;stroke-width:11;}
	.st328{fill:none;stroke:#0063FF;stroke-width:3;}
	.st329{fill:none;stroke:#0063FF;stroke-linecap:round;stroke-dasharray:3;}
	.st330{fill:none;stroke:#001959;stroke-width:2;stroke-linecap:square;}
	.st331{fill:none;stroke:#FFFFFF;stroke-width:9;}
	.st332{fill:none;stroke:#001959;stroke-width:3;}
	.st333{fill-rule:evenodd;clip-rule:evenodd;fill:#FEFEFE;stroke:#001959;stroke-width:11;}
	.st334{opacity:0.1;}
	.st335{opacity:0.1;fill-rule:evenodd;clip-rule:evenodd;fill:#0063FF;enable-background:new    ;}
	.st336{fill-rule:evenodd;clip-rule:evenodd;fill:#FEFEFE;stroke:#001959;}
	.st337{fill:#FEFEFE;stroke:#001959;}
	.st338{fill-rule:evenodd;clip-rule:evenodd;fill:#FEFEFE;stroke:#001959;stroke-width:2;}
	.st339{fill-rule:evenodd;clip-rule:evenodd;fill:#FEFEFE;stroke:#001959;stroke-linecap:round;}
	.st340{fill:none;stroke:#001959;stroke-width:2;stroke-linecap:round;}
	.st341{fill:none;stroke:#001959;}
	.st342{fill:none;stroke:#0063FF;stroke-width:2;}
	.st343{fill:#B8CFFF;}
	.st344{opacity:0.3;fill-rule:evenodd;clip-rule:evenodd;fill:#B8CFFF;enable-background:new    ;}
	.st345{fill-rule:evenodd;clip-rule:evenodd;fill:#E49D7D;}
	.st346{opacity:0.2;fill-rule:evenodd;clip-rule:evenodd;fill:#0063FF;enable-background:new    ;}
	.st347{fill-rule:evenodd;clip-rule:evenodd;fill:#FFDECC;}
	.st348{opacity:0.2;fill-rule:evenodd;clip-rule:evenodd;enable-background:new    ;}
	.st349{opacity:0.05;fill-rule:evenodd;clip-rule:evenodd;enable-background:new    ;}
	.st350{opacity:0.1;fill-rule:evenodd;clip-rule:evenodd;enable-background:new    ;}
	.st351{fill:none;stroke:#0063FF;stroke-width:2;stroke-linecap:square;stroke-dasharray:5,6;}
	.st352{fill:none;stroke:#0063FF;}
	.st353{fill-rule:evenodd;clip-rule:evenodd;fill:#10048A;}
	.st354{fill-rule:evenodd;clip-rule:evenodd;fill:#9F6E53;}
	.st355{fill-rule:evenodd;clip-rule:evenodd;fill:#020202;}
	.st356{fill-rule:evenodd;clip-rule:evenodd;fill:#B8CFFF;stroke:#001959;}
	.st357{fill:none;stroke:#001959;stroke-dasharray:2.7953999,2.7953999;}
	.st358{fill:none;stroke:#001959;stroke-dasharray:3.0797,3.0797;}
	.st359{fill:none;stroke:#001959;stroke-dasharray:2.868,2.868;}
	.st360{fill:none;stroke:#001959;stroke-dasharray:2.8852,2.8852;}
	.st361{fill:none;stroke:#001959;stroke-dasharray:2.8276,2.8276;}
	.st362{fill:none;stroke:#001959;stroke-dasharray:3.0137,3.0137;}
	.st363{fill:none;stroke:#001959;stroke-dasharray:2.8104,2.8104;}
	.st364{fill:none;stroke:#B8CFFF;}
	.st365{fill-rule:evenodd;clip-rule:evenodd;fill:#0F0CA3;}
	.st366{fill-rule:evenodd;clip-rule:evenodd;fill:#002883;}
	.st367{fill-rule:evenodd;clip-rule:evenodd;fill:#003AAC;}
	.st368{opacity:0.3;fill-rule:evenodd;clip-rule:evenodd;fill:#524F63;enable-background:new    ;}
	.st369{opacity:0.6;fill-rule:evenodd;clip-rule:evenodd;fill:#B8CFFF;enable-background:new    ;}
	.st370{opacity:0.3;enable-background:new    ;}
	.st371{opacity:0.2;enable-background:new    ;}
	.st372{fill-rule:evenodd;clip-rule:evenodd;}
	.st373{opacity:0.1;enable-background:new    ;}
	.st374{fill-rule:evenodd;clip-rule:evenodd;fill:#524F63;}
	.st375{opacity:0.6;enable-background:new    ;}
	.st376{fill:none;stroke:#001959;stroke-width:2;}
	.st377{fill-rule:evenodd;clip-rule:evenodd;fill:none;stroke:#001959;stroke-width:2;}
	.st378{fill-rule:evenodd;clip-rule:evenodd;fill:none;stroke:#001959;stroke-width:3;}
	.st379{opacity:0.5;fill-rule:evenodd;clip-rule:evenodd;fill:#B8CFFF;enable-background:new    ;}
	.st380{fill:#FEFEFF;}
	.st381{fill:#356FE5;}
	.st382{opacity:0.5;enable-background:new    ;}
	.st383{fill:none;stroke:#0A025D;stroke-width:2;}
	.st384{fill-rule:evenodd;clip-rule:evenodd;fill:#684FF1;}
	.st385{fill:#0A025D;}
	.st386{fill:none;stroke:#4422EE;stroke-linecap:round;}
	.st387{fill:none;stroke:#4422EE;stroke-linecap:round;stroke-linejoin:round;}
	.st388{fill:#1D2255;}
	.st389{fill:none;stroke:#1D2255;stroke-width:0.5;stroke-miterlimit:10;}
	.st390{opacity:0.5;fill-rule:evenodd;clip-rule:evenodd;fill:#B8CFFF;}
	.st391{opacity:0.5667085;fill-rule:evenodd;clip-rule:evenodd;fill:#0063FF;enable-background:new    ;}
	.st392{opacity:0.1550642;fill-rule:evenodd;clip-rule:evenodd;fill:#003AAC;enable-background:new    ;}
	.st393{fill-rule:evenodd;clip-rule:evenodd;fill:#EFEFF1;}
	.st394{fill:none;stroke:#B8CFFF;stroke-width:2;}
	.st395{fill-rule:evenodd;clip-rule:evenodd;fill:#EAEAEE;}
	.st396{fill:none;stroke:#5C95FF;}
	.st397{opacity:0.4881882;fill:none;stroke:#5C95FF;enable-background:new    ;}
	.st398{opacity:0.6908017;fill:none;stroke:#B8CFFF;enable-background:new    ;}
	.st399{opacity:0.8174061;fill-rule:evenodd;clip-rule:evenodd;fill:#0063FF;enable-background:new    ;}
	.st400{opacity:0.2847842;fill-rule:evenodd;clip-rule:evenodd;fill:#B8CFFF;enable-background:new    ;}
	.st401{opacity:0.5961449;fill:none;stroke:#B8CFFF;enable-background:new    ;}
	.st402{fill:none;stroke:#E9E9E9;}
	.st403{opacity:0.639881;fill-rule:evenodd;clip-rule:evenodd;fill:#5C95FF;enable-background:new    ;}
	.st404{opacity:0.3928106;fill:none;stroke:#5C95FF;enable-background:new    ;}
	.st405{fill:none;stroke:#5C95FF;stroke-width:2;}
	.st406{fill:none;stroke:#FFFFFF;}
	.st407{fill-rule:evenodd;clip-rule:evenodd;fill:#5C95FF;stroke:#002883;}
	.st408{fill:none;stroke:#B8CFFF;stroke-dasharray:8,8;}
	.st409{opacity:0.5;}
	.st410{opacity:0.5667085;enable-background:new    ;}
	.st411{opacity:0.1550642;enable-background:new    ;}
	.st412{opacity:0.4881882;enable-background:new    ;}
	.st413{opacity:0.6908017;enable-background:new    ;}
	.st414{opacity:0.8174061;enable-background:new    ;}
	.st415{opacity:0.2847842;enable-background:new    ;}
	.st416{opacity:0.5961449;enable-background:new    ;}
	.st417{fill:#E9E9E9;}
	.st418{opacity:0.639881;enable-background:new    ;}
	.st419{fill-rule:evenodd;clip-rule:evenodd;fill:#5C95FF;}
	.st420{opacity:0.3928106;enable-background:new    ;}
	.st421{fill:none;stroke:#22232A;stroke-width:4;stroke-miterlimit:10;}
	.st422{fill:#F26D00;stroke:#22232A;stroke-width:4;stroke-miterlimit:10;}
	.st423{fill:none;stroke:#22232A;stroke-width:4;stroke-linecap:round;stroke-miterlimit:10;}
	.st424{fill:url(#SVGID_336_);}
	.st425{fill:url(#SVGID_337_);}
	.st426{fill:#92D0FF;}
	.st427{fill:url(#SVGID_338_);}
	.st428{fill:url(#SVGID_339_);}
	.st429{fill:url(#SVGID_340_);}
	.st430{fill:url(#SVGID_341_);}
	.st431{fill:url(#SVGID_342_);}
	.st432{fill:none;stroke:#B3D3F4;stroke-miterlimit:10;}
	.st433{fill:none;stroke:#B3D3F4;stroke-miterlimit:10;stroke-dasharray:3.9672446,3.9672446;}
	.st434{fill:#F3FAFF;}
	.st435{fill:#B3D3F4;}
	.st436{fill:#CFE0F5;}
	.st437{fill:#FFF4E1;}
	.st438{fill:#E6F1FC;}
	.st439{fill:#FC8975;}
	.st440{fill:#CC6658;}
	.st441{fill:#352E72;}
	.st442{fill:url(#SVGID_343_);}
	.st443{fill:#75A1E9;}
	.st444{fill:url(#SVGID_344_);}
	.st445{fill:none;stroke:#4A578E;stroke-width:0.5;stroke-miterlimit:10;}
	.st446{fill:#081466;}
	.st447{fill:url(#SVGID_345_);}
	.st448{fill:#2D4CBA;}
	.st449{fill:url(#SVGID_346_);}
	.st450{fill:url(#SVGID_347_);}
	.st451{opacity:0.55;fill:#C9D3F4;}
	.st452{fill:url(#SVGID_348_);}
	.st453{opacity:0.35;fill:#C9D3F4;}
	.st454{fill:url(#SVGID_349_);}
	.st455{fill:url(#SVGID_350_);}
	.st456{fill:url(#SVGID_351_);}
	.st457{fill:url(#SVGID_352_);}
	.st458{fill:url(#SVGID_353_);}
	.st459{fill:url(#SVGID_354_);}
	.st460{opacity:0.75;}
	.st461{fill:url(#SVGID_355_);}
	.st462{fill:#A2C0ED;}
	.st463{fill:url(#SVGID_356_);}
	.st464{fill:#ABD1FF;}
	.st465{opacity:0.75;fill:url(#SVGID_357_);}
	.st466{fill:url(#SVGID_358_);}
	.st467{fill:url(#SVGID_359_);}
	.st468{fill:url(#SVGID_360_);}
	.st469{fill:#E49D7D;}
	.st470{fill:#9F6E53;}
	.st471{fill:url(#SVGID_361_);}
	.st472{fill:url(#SVGID_362_);}
	.st473{fill:url(#SVGID_363_);}
	.st474{opacity:0.44;}
	.st475{fill:url(#SVGID_364_);}
	.st476{fill:#10048A;}
	.st477{fill:#0F0CA3;}
	.st478{fill:url(#SVGID_365_);}
	.st479{fill:url(#SVGID_366_);}
	.st480{fill:url(#SVGID_367_);}
	.st481{opacity:0.75;fill:url(#SVGID_368_);}
	.st482{fill:url(#SVGID_369_);}
	.st483{fill:url(#SVGID_370_);}
	.st484{fill:url(#SVGID_371_);}
	.st485{opacity:0.15;fill:#0063FF;}
	.st486{fill:#352E73;}
	.st487{fill:url(#SVGID_372_);}
	.st488{opacity:0.35;fill:url(#SVGID_373_);}
	.st489{fill:url(#SVGID_374_);}
	.st490{opacity:0.35;fill:url(#SVGID_375_);}
	.st491{fill:url(#SVGID_376_);}
	.st492{opacity:0.75;fill:url(#SVGID_377_);}
	.st493{opacity:0.75;fill:url(#SVGID_378_);}
	.st494{fill:#F42A73;}
	.st495{fill:none;stroke:#CFE0F5;stroke-miterlimit:10;}
</style>
<g>
	<g>
		<g>
			<path class="st469" d="M47.6469078,14.8399563l0.199131-0.3106833c0,0-0.0572662-0.2219973-0.0568314-0.5018063
				c0.0001945-0.1247826,0.0410538-0.454917,0.0908813-0.4822235c0.0498276-0.0273275,0.0728035,0.2787428,0.0941467,0.2670364
				c0.0213432-0.0117054,0.1810913-0.6132069,0.2710419-0.6047649c0.0454941,0.0042648-0.1107483,0.587163-0.1107483,0.587163
				s0.1540451-0.6327457,0.2251053-0.6107922c0.071064,0.0219536-0.0982132,0.6255875-0.0982132,0.6255875
				s0.1484528-0.5734549,0.2085724-0.5548735c0.0601387,0.0185595-0.0959549,0.5774584-0.0959549,0.5774584
				s0.1474762-0.4972153,0.1802673-0.4690599c0.0499763,0.0429068-0.0064392,0.3854656-0.1492615,0.8691473
				c-0.0247612,0.0838547-0.1453209,0.360857-0.1519356,0.3832245c-0.0065918,0.0223665-0.1426239,0.5233898-0.1426239,0.5233898"/>
			<g>
				<g>
					<path class="st470" d="M47.9347153,13.8900976c0.0219498,0.0540628,0.0321007,0.1122379,0.0563126,0.1651001
						c0.0017204,0.0037565,0.0166779,0.0369616,0.0120316,0.0258532c0.0055809,0.0133457,0.0105972,0.0269728,0.0152435,0.0406685
						c0.0086975,0.0256357,0.0158157,0.051796,0.0207443,0.0784225c0.0010262,0.0053244,0.0019379,0.0106697,0.0027237,0.016036
						c-0.0016632-0.0119352-0.0017662-0.0111532-0.0003052,0.002347c0.001152,0.0145283,0.0031357,0.028842,0.00354,0.0434504
						c0.0004311,0.0155916-0.0005569,0.0309782-0.0013657,0.0465288c-0.0014877,0.0139189-0.0015488,0.0154152-0.0001793,0.0044889
						c-0.0008926,0.0057516-0.001915,0.0114794-0.0030632,0.0171843c-0.0025826,0.0133829-0.0062981,0.0264626-0.0091515,0.0397673
						c-0.0032501,0.0136032-0.0054131,0.0273962-0.0064926,0.041378c0.0014763-0.010416,0.0011673-0.0087204-0.000927,0.0050869
						c-0.0059166,0.0398226,0.0011864,0.0745058,0.0064774,0.1136427c0.0060196,0.0445499,0.073864,0.0710058,0.1090279,0.0443554
						c0.031517-0.0238895,0.0626717-0.0455418,0.0825005-0.080719c0.0192566-0.0341654,0.0311623-0.0705795,0.0381432-0.1089973
						c0.0137749-0.07582,0.0169525-0.1527262-0.0032616-0.2277699c-0.0169106-0.0627899-0.0453377-0.1234579-0.0782776-0.1793537
						c-0.0353088-0.0599127-0.0882797-0.1007538-0.1359978-0.1501799
						C48.000473,13.7839174,47.9096947,13.8284769,47.9347153,13.8900976L47.9347153,13.8900976z"/>
				</g>
			</g>
		</g>
		<g>
			<path class="st441" d="M40.8003693,52.3120995c0,0,1.1633377,0.4249344,1.1713448,0.7688408
				c0.0045891,0.1971283-1.687664,0.1917992-1.7930832,0.061161c-0.168644-0.2089844,0.1243477-0.7866592,0.1243477-0.7866592
				L40.8003693,52.3120995z"/>
			<path class="st469" d="M40.7751503,51.3515244l0.026001,0.9902077c0,0-0.0365524,0.1612282-0.2081795,0.1837463
				c-0.171627,0.0224991-0.2899933-0.1700363-0.2899933-0.1700363l-0.0506516-1.2387733"/>
			
				<linearGradient id="SVGID_2_" gradientUnits="userSpaceOnUse" x1="4642.793457" y1="-4.6826258" x2="4642.793457" y2="-27.2698841" gradientTransform="matrix(-0.8756 0.0235 0.0269 0.9996 4105.4814453 -52.7446594)">
				<stop  offset="0" style="stop-color:#29225E"/>
				<stop  offset="1" style="stop-color:#3F368C"/>
			</linearGradient>
			<path style="fill:url(#SVGID_2_);" d="M41.5705147,29.3099918c0,0,0.6333122,3.8441677,0.3151245,11.219862
				c-0.2173195,5.0376205-0.8978691,11.1270676-1.1471062,11.1339188c-0.249218,0.0068321-0.472477-0.0239105-0.472477-0.0239105
				s-1.5865326-7.2994347-1.6945381-11.4107666c-0.1662979-6.3301773-1.8359222-7.7821159-1.1121178-11.0718441"/>
			<polygon class="st443" points="40.9020653,51.2621002 40.8553963,51.6983032 40.1602478,51.7174072 40.1274376,51.2834015 			"/>
		</g>
		<g>
			<path class="st441" d="M37.211792,52.4107056c0,0,1.1633377,0.4249344,1.1713219,0.7688637
				c0.0046158,0.1971054-1.6876602,0.1917992-1.7930794,0.061161c-0.1686478-0.2090073,0.1243706-0.7866821,0.1243706-0.7866821
				L37.211792,52.4107056z"/>
			<path class="st469" d="M37.186554,51.4501305l0.026001,0.9902306c0,0-0.0365334,0.1612053-0.2081604,0.1837273
				c-0.1716499,0.0225182-0.2899895-0.1700401-0.2899895-0.1700401l-0.0506744-1.2387733"/>
			
				<linearGradient id="SVGID_4_" gradientUnits="userSpaceOnUse" x1="4645.3754883" y1="-4.6799693" x2="4645.3754883" y2="-27.2685642" gradientTransform="matrix(-0.8756 0.0235 0.0269 0.9996 4105.4814453 -52.7446594)">
				<stop  offset="0" style="stop-color:#29225E"/>
				<stop  offset="1" style="stop-color:#3F368C"/>
			</linearGradient>
			<path style="fill:url(#SVGID_4_);" d="M39.5184517,29.3663883c0,0-0.2983932,4.8893604-0.6738281,10.532877
				c-0.1483231,2.2296753-1.4291306,11.5522575-1.6097679,11.8607864c-0.2492371,0.006855-0.6331787,0.0174065-0.6331787,0.0174065
				s-0.9631653-8.0676003-1.0711708-12.1789551c-0.166275-6.3301582-0.8469543-7.0951462-0.1231728-10.3848553"/>
			<polygon class="st443" points="37.329937,51.3602715 37.283268,51.7964745 36.5881195,51.8155785 36.5552864,51.3815727 			"/>
			<path class="st445" d="M39.3648605,31.8399754c0,0-0.246563,6.2472782-0.7028275,9.9063282"/>
		</g>
		<g>
			<path class="st446" d="M40.182724,16.3480282c-0.3967361-0.6999788-1.4730873-0.5939951-2.0884476-0.2734337
				c-0.8727798,0.4546566-1.0802193,1.75037-1.8960838,2.3046989c-0.360878,0.2451916-0.796669,0.3894253-1.0860062,0.7192554
				c-0.3372307,0.3844433-0.4031792,0.9698009-0.2345085,1.4566364c0.1686897,0.4868145,0.543972,0.8783951,0.9779358,1.1424942
				c0.4339638,0.2641201,0.9256744,0.412075,1.4183197,0.5256081c0.7863159,0.1812019,1.623848,0.278286,2.3869438,0.0128384
				c0.7630997-0.2654705,1.4251976-0.9768944,1.4224777-1.8013058c-0.002285-0.697607-0.4602509-1.3496075-0.3800507-2.0423851"/>
		</g>
		<g>
			<linearGradient id="SVGID_6_" gradientUnits="userSpaceOnUse" x1="41.1870346" y1="23.790144" x2="51.5048218" y2="18.8642349">
				<stop  offset="0" style="stop-color:#0063FF"/>
				<stop  offset="1" style="stop-color:#003AAC"/>
			</linearGradient>
			<path style="fill:url(#SVGID_6_);" d="M47.7083511,14.6033592c0,0-2.0835037,2.9892941-2.5601349,3.6696033
				c-0.7413635,1.058115-3.7870331,1.2629013-5.4157104,2.2271538l-1.1292,0.1226501
				c-0.536293,0.1091156-2.3869667,1.4263916-2.5599861,1.9569397c-0.394928,1.211031-0.7932739,2.4396858-0.8639259,3.7142735
				c-0.0239525,0.4322224-0.0098534,0.8655777,0.0042458,1.2982368c0.0204277,0.6260872,0.0408401,1.2521763,0.0612488,1.8782635
				c0.0013695,0.0417309,0.0037842,0.0865974,0.0290451,0.1194077c0.0268936,0.0350094,0.0726509,0.0472145,0.1151009,0.0570278
				c2.044754,0.4720631,4.1746712,0.217886,6.2558289-0.0384464c0.0727806-0.0089645,0.1508942-0.0203876,0.2042427-0.0717793
				c0.0644035-0.0620537,0.0727806-0.1622066,0.0752602-0.252676c0.011055-0.4004784-0.0119019-0.8009796-0.0279121-1.2012844
				c-0.0693436-1.7326145-0.007618-3.4706039,0.1825905-5.1937103c0.6446915-0.4044609,3.3106842-1.2413845,4.2029839-2.4864006
				c1.9970169-2.7864017,1.9970169-5.6574402,1.9970169-5.6574402L47.7083511,14.6033592z"/>
		</g>
		<g>
			<path class="st469" d="M39.7325058,20.5001163l-0.0405998-1.4302216l-0.6337471,0.0874023l-0.4540253,1.4506512
				c0,0,0.2085953,0.3000431,0.6763268,0.2355099C39.6848106,20.7876701,39.7325058,20.5001163,39.7325058,20.5001163z"/>
		</g>
		<g>
			<path class="st469" d="M38.3801994,18.4852982c-0.0325928-0.5607471,0.1333542-1.1629238,0.4293938-1.4924927
				c0.2952156-0.3286324,0.8484154-0.3768711,1.2558556-0.3213234c0.1396408,0.0190182,0.2786522,0.066124,0.3879662,0.1569843
				c0.4021759,0.3343792,0.3754349,1.1049824,0.3471947,1.577198c-0.0240021,0.401001-0.1421661,0.8056564-0.3925819,1.1151867
				c-0.0791779,0.0979328-0.1734123,0.1871414-0.2884254,0.2352924c-0.3853569,0.1612263-0.934288,0.0727367-1.262249-0.1879025
				C38.5370522,19.313736,38.4034386,18.8855171,38.3801994,18.4852982z"/>
		</g>
		<g>
			<path class="st446" d="M38.1996956,18.9369965c-0.1490211,0.0696907-0.3803978,0.12006-0.496212-0.0436039
				c-0.0925407-0.130722-0.0119247-0.3269367,0.0205803-0.4660358c0.1055031-0.4515667,0.2361183-0.8969307,0.3910789-1.3333111
				c0.0800934-0.2255001,0.168232-0.4515667,0.3081589-0.6441898c0.2742844-0.3775024,1.0535698-0.5528069,1.511467-0.5093346
				c0.5035667-0.0333986,1.3055267,0.7868576,0.8666458,1.7409267c-0.0652542-0.233551-0.1577263-0.2135334-0.3295937-0.410553
				c-0.165947,0.1660576-0.3957558,0.2557011-0.6269798,0.2766533c-0.3044586,0.0275898-0.6563301-0.0417957-0.8796997,0.1715622
				c-0.2288284,0.2185612-0.1814156,0.6084652-0.3470383,0.8802223
				C38.5227356,18.7557945,38.3636208,18.8603649,38.1996956,18.9369965z"/>
		</g>
		<g>
			<path class="st469" d="M38.7202377,18.5808163c0.020668-0.1302643-0.0624924-0.2134247-0.1489372-0.2225838
				c-0.2316132-0.0244999-0.3007393,0.3391209-0.2108994,0.5044594c0.0666428,0.1226063,0.2347908,0.223629,0.3217583,0.0759354"/>
		</g>
		<g>
			<g>
				<g>
					<path class="st446" d="M39.1086807,19.4333839c-0.0568771-0.0051346-0.1139908-0.0138817-0.1702118-0.027916
						c-0.1293526-0.0323105-0.309597-0.1077232-0.433857-0.2837029c-0.0448418-0.0634899-0.0675354-0.1229763-0.0694504-0.1818314
						c-0.0004807-0.0148182,0.0108795-0.0271988,0.0253487-0.0277195c0.0147705-0.0003262,0.0265884,0.0111618,0.0270882,0.0259342
						c0.0015221,0.0478687,0.021019,0.0976734,0.0595284,0.1522198c0.1149254,0.1627293,0.2829857,0.2328339,0.4037437,0.262989
						c0.1619873,0.0403614,0.3348351,0.0350742,0.4841385,0.0268497c0.0144882-0.0009575,0.026825,0.0105743,0.0276108,0.0253487
						c0.000782,0.0147953-0.0103149,0.0274372-0.0247841,0.0282421
						C39.3357277,19.4394112,39.2227592,19.443697,39.1086807,19.4333839z"/>
				</g>
				<g>
					<path class="st446" d="M39.5553093,19.3397808c-0.0438004-0.0242386-0.100132-0.0234108-0.1476936-0.008007
						c-0.1667557,0.0540257,0.0139465,0.2708225,0.1646652,0.1593342c0.0124207-0.009182,0.0234528-0.0201912,0.0303955-0.0332241
						C39.6243477,19.4171753,39.5991516,19.3640194,39.5553093,19.3397808z"/>
				</g>
			</g>
			<g>
				<g>
					<path class="st443" d="M37.9967804,17.6396503c0.0386429-0.3714314,0.1756096-0.7980404,0.4038048-1.0896645
						c0.2933884-0.3749561,0.6856194-0.6836815,1.0620766-0.6836815c0.3145142,0,0.4721069,0.0742168,0.4721069,0.0742168
						c-0.3879242,0.094017-0.7196922,0.2830944-1.0263939,0.6074409c-0.3067207,0.3243694-0.4877052,0.769865-0.4960403,1.2210178"
						/>
				</g>
			</g>
			<path class="st443" d="M38.9480629,18.2591019c0.0428619,0.4215851-0.2316132,0.796257-0.6130981,0.8368359
				c-0.3814621,0.0405788-0.7254562-0.2682972-0.768322-0.6898823c-0.042881-0.4215832,0.231617-0.796257,0.6130791-0.8368359
				C38.561203,17.5286407,38.905201,17.8375187,38.9480629,18.2591019z"/>
			<path class="st448" d="M38.6203651,18.3262043c0.0293732,0.2890129-0.1489105,0.5447769-0.3982162,0.5713005
				c-0.2493019,0.0265236-0.4752388-0.1862488-0.5046349-0.4752598c-0.0293961-0.2889919,0.1488914-0.5447788,0.3982162-0.5713024
				C38.365036,17.8244209,38.5909691,18.0372143,38.6203651,18.3262043z"/>
		</g>
	</g>
	<g id="Fill-1-Copy-22_8_" class="st409">
		<path class="st318" d="M11.0561972,30.4896011c-0.1184721-0.8095608-0.0538511-1.6679115,0.3183641-2.5278702
			c0.7224026-1.6690273,2.4461699-2.681036,4.2648287-2.681036h73.5788956c1.7777863,0,3.4431839,0.9867725,4.1939621,2.5982494
			c0.5398483,1.1587353,0.8083038,2.549633,0.0578232,3.8340263c-0.6566849,1.1238632-1.9174423,1.7554855-3.2190933,1.7554855
			H74.7911453c-0.9799347,0-1.9163055,0.4711342-2.4477158,1.2944641c-0.4881363,0.7562675-0.9093552,1.8012886-0.7190018,3.019619
			c0.2977829,1.905899,2.0397949,3.2527657,3.9688187,3.2527657h8.4262314c1.358017,0,2.6232834,0.8306274,3.0375214,2.1239243
			c0.1041336,0.3250961,0.1579514,0.6800003,0.1297989,1.059288c-0.1077194,1.4513741-1.4134064,2.5250473-2.8687668,2.5250473
			H73.4943466c-2.2896423,0-4.4256973,1.342865-5.2480698,3.4797287c-0.0116348,0.0302315-0.0229797,0.0605659-0.0340195,0.090992
			c-0.5888214,1.6221733,0.651062,3.3321609,2.3767929,3.3321609h9.3432465c1.559761,0,3.0129166,0.869133,3.678833,2.2795906
			c0.360321,0.763195,0.6144562,1.684124,0.541481,2.7096138c-0.1196365,1.681221-1.5395813,2.9757957-3.2250519,2.9757957
			H8.8516169c-2.5780706,0-4.9435315-1.6012077-5.737956-4.0538254c-0.3883007-1.1987953-0.4051101-2.5569077,0.4353676-3.9203415
			c0.9360478-1.5184669,2.6511247-2.3802338,4.4349203-2.3802338h3.9804173c1.5939951,0,3.0410213-0.9620285,3.6214237-2.4465981
			c0.9923773-2.5383339,3.4836645-6.1216202,9.6278925-5.9777031c0.7460918,0.0174789,1.4629383-0.3172607,1.8925667-0.9274864
			c0.8752842-1.2432213,1.9327126-3.441082,0.2658367-5.3078232c-0.8167496-0.9146843-2.0255432-1.3801994-3.2518082-1.3801994
			h-7.4085846C13.9309921,35.2172356,11.4588366,33.2409973,11.0561972,30.4896011z"/>
	</g>
	<path class="st5" d="M47.0703392,23.7360001L29.2925949,36.5331383l-0.0114841,17.5141716
		c0,0-0.4484367,2.2421799,2.04599,1.9899368l32.0004196,0.000206c0,0,1.6425514,0.2927971,1.5186424-1.5186462V36.3524666
		l-3.1473732-2.2255516L47.0703392,23.7360001z"/>
	<g id="Fill-1-Copy-22_9_">
		<path class="st318" d="M1.0268972,22.440567c-0.0148375-0.1013908-0.0067443-0.2088928,0.0398725-0.3165951
			c0.090475-0.2090321,0.3063624-0.3357773,0.5341341-0.3357773h9.2151423c0.2226534,0,0.4312305,0.1235847,0.525259,0.3254089
			c0.0676117,0.1451225,0.1012335,0.3193207,0.0072422,0.4801807c-0.0822449,0.1407528-0.2401438,0.2198582-0.4031649,0.2198582
			H9.0091677c-0.1227293,0-0.2400007,0.0590057-0.3065567,0.1621208c-0.0611343,0.094717-0.1138887,0.2255974-0.0900478,0.3781834
			c0.0372944,0.2386971,0.2554674,0.4073811,0.4970608,0.4073811h1.055315c0.1700802,0,0.3285446,0.1040287,0.3804245,0.2660046
			c0.0130415,0.0407143,0.0197821,0.0851631,0.0162563,0.1326656c-0.0134916,0.1817741-0.1770172,0.3162422-0.3592901,0.3162422
			H8.8467541c-0.2867584,0-0.5542822,0.1681824-0.6572762,0.4358063c-0.0014572,0.0037861-0.0028782,0.0075855-0.004262,0.0113964
			c-0.0737448,0.2031631,0.0815411,0.417326,0.2976742,0.417326h1.1701641c0.1953459,0,0.3773422,0.1088505,0.460743,0.2854996
			c0.0451269,0.095583,0.0769548,0.2109222,0.0678158,0.3393555c-0.0149832,0.2105598-0.1928196,0.372694-0.4039106,0.372694
			H0.750792c-0.3228818,0-0.6191361-0.2005367-0.7186311-0.5077076c-0.0486314-0.1501389-0.0507367-0.3202324,0.0545261-0.4909897
			c0.1172322-0.190176,0.3320312-0.2981052,0.5554368-0.2981052h0.4985141c0.1996346,0,0.3808625-0.1204853,0.4535531-0.3064156
			c0.124287-0.3179054,0.4362999-0.7666817,1.2058133-0.7486572c0.0934417,0.0021896,0.1832209-0.0397339,0.2370281-0.1161594
			c0.109622-0.1557045,0.2420559-0.4309673,0.0332937-0.6647606c-0.1022911-0.1145573-0.2536824-0.1728592-0.4072616-0.1728592
			H1.7352009C1.3869413,23.0326633,1.0773245,22.7851562,1.0268972,22.440567z"/>
	</g>
	<g id="Stroke-66-Copy-28_2_">
		<path class="st318" d="M29.8302021,21.4785233c0.0910549,0.557888-0.2876472,1.0834942-0.84515,1.1741295
			c-0.5579147,0.0910511-1.0839596-0.2876339-1.1746006-0.8455219s0.2876492-1.0830803,0.8455639-1.1741295
			C29.2139301,20.5419502,29.7395611,20.9206352,29.8302021,21.4785233z"/>
	</g>
	<g>
		<path class="st318" d="M82.8957901,24.057354c0.0569153,0.3486786-0.1797791,0.6771832-0.5282135,0.7338314
			c-0.3487015,0.0569057-0.677475-0.1797733-0.7341309-0.5284519c-0.0566483-0.3486805,0.1797791-0.6769257,0.5284805-0.7338314
			C82.5106201,23.4719944,82.8391418,23.7086735,82.8957901,24.057354z"/>
	</g>
	<g id="Stroke-45-Copy-6_2_">
		<rect x="11.4236202" y="26.6315536" class="st343" width="1.7908443" height="0.2558349"/>
	</g>
	<g id="Stroke-48-Copy-6_2_">
		<rect x="10.400281" y="26.6315536" class="st343" width="0.5116698" height="0.2558349"/>
	</g>
	<g id="Combined-Shape-Copy-39_2_">
		<path class="st343" d="M6.4107985,29.8784714L5.7249913,29.844244l0.0404739-0.7662544l0.6853075,0.0358505L6.4107985,29.8784714z
			 M6.7348394,28.5778122l-0.0683308-0.0034981l0.0001249,0.000124l-1.1280222-0.0590858l0.003623-0.0689564l-0.0004997,0.0003757
			l0.0558386-1.0589428l0.0001249,0.0001259l0.003623-0.0689564l0.0684557,0.003624v-0.0001259l1.1278973,0.0589619
			l-0.003623,0.0688305l0.0003748-0.0002499L6.7348394,28.5778122z"/>
	</g>
	<g>
		<g id="Path-11_3_">
			<polygon class="st321" points="14.2816534,39.3505592 9.2773027,40.5632019 9.2773027,45.172348 7.1218972,41.1422348 
				2.297179,42.2614517 0.5386758,34.2770157 			"/>
		</g>
		<g id="Path-14_3_">
			<polyline class="st367" points="9.271327,40.4742012 2.0244031,35.7627411 6.127944,41.3629761 			"/>
		</g>
		<g id="Path-14-Copy_3_">
			<polyline class="st367" points="9.271327,40.4742012 9.271327,45.1650581 6.127944,41.3629761 			"/>
		</g>
		<g id="Rectangle-5_3_">
			<rect x="8.9577971" y="45.172348" class="st318" width="0.6190531" height="0.2476212"/>
		</g>
		<g id="Path-43_3_">
			<polygon class="st318" points="6.127944,41.3629761 9.2801113,45.1616783 4.9758339,41.6362534 			"/>
		</g>
		<g>
			<path class="st343" d="M22.9754124,48.9963036c0.3237934-0.0168648,0.6490974-0.063839,0.9669075-0.1396484l0.0287762,0.1204262
				c-0.3251247,0.0775604-0.6579857,0.1256218-0.9892769,0.1429138L22.9754124,48.9963036z M21.0052624,48.8733406
				l0.0353069-0.1186104c0.3194408,0.0950317,0.6416626,0.1637077,0.9576569,0.2040329l-0.0157185,0.1228409
				C21.6599236,49.0403748,21.3311119,48.9703102,21.0052624,48.8733406z M16.0965481,48.8122215l0.0061646-0.1236916
				c0.3265762,0.0163231,0.6570187,0.0183792,0.9848633,0.006649l0.0044746,0.1236916
				c-0.140255,0.0050774-0.2805691,0.0075569-0.420763,0.0075569
				C16.4803123,48.8264275,16.2869186,48.8216515,16.0965481,48.8122215z M18.0696583,48.6185837
				c0.323431-0.0387497,0.65061-0.0917091,0.9724693-0.1573601l0.024786,0.1212692
				c-0.3251839,0.0663795-0.6557484,0.1198807-0.9825039,0.1590576L18.0696583,48.6185837z M14.1259155,48.5401764
				l0.0278091-0.1206665c0.3177481,0.0730896,0.6435966,0.1328163,0.9684792,0.1776123l-0.0169277,0.1226044
				C14.7768278,48.6745071,14.4473515,48.6141129,14.1259155,48.5401764z M24.870718,48.5480957
				c0.2924786-0.1253815,0.5847149-0.2783318,0.8686085-0.4544983l0.0652905,0.1051941
				c-0.2891541,0.1794281-0.5869522,0.3352776-0.8851738,0.4630775L24.870718,48.5480957z M19.1902409,48.0546074
				l0.063961-0.1060371c0.2889709,0.1741676,0.5811481,0.3289299,0.8684273,0.459877l-0.0513859,0.1126862
				C19.7796707,48.388195,19.483263,48.2311935,19.1902409,48.0546074z M19.9973679,48.2236977
				c0.336731-0.1011391,0.645834-0.2163048,0.9188461-0.3423538l0.0518703,0.1124458
				c-0.2782116,0.1284027-0.5928173,0.2456856-0.9350491,0.3485184L19.9973679,48.2236977z M12.2361107,47.9184036
				l0.0494518-0.113533c0.2988863,0.1301575,0.6083527,0.2480431,0.9198742,0.3503914l-0.0386906,0.1176453
				C12.8515968,48.1693497,12.5385036,48.0500717,12.2361107,47.9184036z M26.5378075,47.5212173
				c0.2478027-0.2024612,0.4917374-0.4262657,0.72509-0.6651802l0.0886269,0.0864487
				c-0.236618,0.2423019-0.4839973,0.4692497-0.7353668,0.6746101L26.5378075,47.5212173z M18.1896,47.3689919
				c-0.2082653-0.1597214-0.4008732-0.340477-0.5725651-0.5372581l0.0933418-0.0813713
				c0.1662502,0.1905518,0.3528728,0.3656273,0.5545483,0.5203323c0.0575523,0.0441895,0.1149235,0.0873566,0.1721134,0.1295547
				l-0.0736332,0.0996284C18.3057327,47.4571953,18.247757,47.4135475,18.1896,47.3689919z M21.7515125,47.3821106
				c0.2740402-0.2154579,0.4878063-0.4572754,0.6352539-0.7187424l0.107851,0.0608177
				c-0.155489,0.2756729-0.3797741,0.5297623-0.6665707,0.7552567L21.7515125,47.3821106z M10.5060263,46.9320869
				l0.0753269-0.0982971c0.241394,0.1849289,0.5179729,0.3650856,0.8219986,0.5354462l-0.0605755,0.1079712
				C11.0336723,47.3040047,10.7521362,47.1205864,10.5060263,46.9320869z M9.2964554,45.4604454l0.1146212-0.046669
				c0.1050701,0.2578392,0.2601357,0.5105972,0.4609652,0.7513885l-0.0950346,0.0793152
				C9.567956,45.9938965,9.4063005,45.7301331,9.2964554,45.4604454z M27.9139919,46.1166191
				c0.3680458-0.4637451,0.5653095-0.801506,0.5672436-0.8048286l0.1071243,0.0621452
				c-0.0081596,0.0139656-0.2032471,0.348217-0.5773983,0.8197021L27.9139919,46.1166191z M16.7492123,45.0411339
				l0.1218758-0.0215187c0.0560417,0.3167801,0.1574249,0.6269722,0.3013668,0.9219284l-0.1112366,0.054287
				C16.9121971,45.6905365,16.8072491,45.3693428,16.7492123,45.0411339z M22.6426697,45.747242
				c0.0010891-0.0288353,0.0016327-0.0577927,0.0016327-0.086689c0-0.2724686-0.0489063-0.5640411-0.1453323-0.8665543
				l0.1180077-0.0376015c0.1002941,0.314724,0.1511364,0.6189308,0.1511364,0.9041557
				c0,0.030468-0.0005455,0.060997-0.0017548,0.091526L22.6426697,45.747242z M16.7191067,44.0366249
				c0.0437088-0.370224,0.1492615-0.6929283,0.313879-0.9590492l0.1053123,0.0651703
				c-0.1550064,0.2505836-0.2546959,0.5562401-0.2962265,0.90839L16.7191067,44.0366249z M21.4593964,43.1740608
				l0.0828228-0.0920105c0.249918,0.2249527,0.4685211,0.4823647,0.6496429,0.7651711l-0.1042233,0.0667419
				C21.9124413,43.6405869,21.7010937,43.3916359,21.4593964,43.1740608z M19.7384415,42.315731l0.0232143-0.1216354
				c0.3289318,0.0626907,0.6489182,0.1710854,0.951189,0.3221626l-0.0553761,0.1107521
				C20.3654137,42.4810143,20.0561886,42.3762436,19.7384415,42.315731z M17.7845554,42.4021187
				c0.2611618-0.1290092,0.5716572-0.2134628,0.9230175-0.2510643l0.0506001-0.0050201l0.0116081,0.1232071l-0.0491505,0.0048981
				c-0.336731,0.0360909-0.6331997,0.1164932-0.8811836,0.2389755L17.7845554,42.4021187z"/>
		</g>
	</g>
	<g>
		<g>
			<path class="st227" d="M63.3275185,56.5006905H30.8111839c-1.0927849,0-1.9818268-0.8890419-1.9818268-1.981884V36.2958641
				l18.2390594-13.1292992l18.2409859,12.9465942v18.4056473C65.3094025,55.6116486,64.4203568,56.5006905,63.3275185,56.5006905z
				 M29.2925949,36.5331383v17.9856682c0,0.8373604,0.6812305,1.5186462,1.518589,1.5186462h32.5163345
				c0.8373604,0,1.5186424-0.6812859,1.5186424-1.5186462V36.3524666L47.0703392,23.7360001L29.2925949,36.5331383z"/>
		</g>
		<g>
			<polygon class="st227" points="64.9760513,53.6978493 47.0693779,44.9460182 29.1627064,53.6978493 28.9592476,53.2816582 
				47.0693779,44.4304161 65.179512,53.2816582 			"/>
		</g>
		<g>
			<path class="st1" d="M61.7656059,38.8577614V25.7102375c0-0.310833-0.2519989-0.5628338-0.5628319-0.5628338H32.7874832
				c-0.244709,0-0.4429741,0.1983814-0.4429741,0.4429722v13.2673855l12.9540062,6.6958809l1.8843384-0.8654442l1.6573524,0.8654442
				l12.3737984-6.3979034l0.4260635-0.2440109L61.7656059,38.8577614z"/>
			<path class="st227" d="M48.8397179,45.8146477l-1.6634064-0.8685722l-1.8837738,0.865181l-13.1796265-6.8124695V25.5903683
				c0-0.3719711,0.3025856-0.6745567,0.6745567-0.6745567h28.4153252c0.438076,0,0.7944412,0.3563633,0.7944412,0.7944374
				v13.3000736l-0.2535057,0.1089668l-0.414608,0.237442L48.8397179,45.8146477z M32.576149,38.7167244l12.7283783,6.5792694
				l1.884903-0.8656311l1.6513062,0.862236l12.2668877-6.342556l0.4263687-0.2445145V25.7102489
				c0-0.1826496-0.1485481-0.3311996-0.3311996-0.3311996H32.787468c-0.1165428,0-0.211319,0.0947742-0.211319,0.211319V38.7167244z
				"/>
		</g>
		<g>
			<polygon class="st227" points="45.2955894,45.8128395 28.9546108,37.3663673 29.1673431,36.9548149 45.3014717,45.2944107 
				46.9677048,44.4801216 47.171051,44.8963127 			"/>
		</g>
		<g>
			
				<rect x="61.5608635" y="37.777565" transform="matrix(0.8899394 -0.4560787 0.4560787 0.8899394 -10.3549471 33.1085968)" class="st227" width="3.7216697" height="0.4632142"/>
		</g>
	</g>
	<g>
		<circle class="st1" cx="15.5847673" cy="36.6798439" r="1.3292634"/>
	</g>
	<g>
		<circle class="st1" cx="24.2440872" cy="54.2147026" r="2.0543482"/>
	</g>
	<g>
		<circle class="st1" cx="85.7143631" cy="50.7107582" r="1.7092351"/>
	</g>
	<g>
		<circle class="st1" cx="88.2915955" cy="57.2322311" r="0.8681082"/>
	</g>
	<g>
		<circle class="st1" cx="26.2984352" cy="41.357048" r="0.8681092"/>
	</g>
	<g>
		<circle class="st1" cx="24.9962711" cy="26.0027733" r="0.4340547"/>
	</g>
	<g>
		<circle class="st1" cx="70.3630829" cy="36.0844688" r="0.4340539"/>
	</g>
	<g class="st474">
		<g>
			<g>
				<g>
					<g>
						<g>
							<path class="st5" d="M43.7362289,33.0502243v6.1103897c0,0.1556587,0.0831871,0.2755814,0.218132,0.3531647
								l2.983593,1.7505188c0.1342468,0.0771828,0.2994003,0.0918465,0.4336472,0.0146637l2.9830055-1.7598648
								c0.1353073-0.0777931,0.2187195-0.202404,0.2187195-0.3584824v-6.1157875l-3.4185486,2.0349503L43.7362289,33.0502243z"/>
							<path class="st5" d="M42.7257233,38.5214577v-5.8984871c0-0.0901527,0.0227547-0.2040596,0.1990356-0.2913094
								l4.1058159-2.4436684c0.076992-0.0438652,0.1714134-0.0438652,0.2484093,0l4.1825027,2.4888954
								c0.078331,0.0446281,0.1238441,0.0738564,0.1222916,0.1764946l-0.0000114,5.9680748
								c0,0.1237869,0.1366539,0.1820984,0.2449226,0.1220856l0.8407211-0.4992905
								c0.0797729-0.0442162,0.117939-0.1108398,0.117939-0.2020454v-6.1054211
								c0-0.1075745-0.0359688-0.1443977-0.1132812-0.1893005L47.2804184,28.43927
								c-0.077713-0.0451374-0.1736374-0.0452614-0.2514687-0.0003242l-5.3834038,3.205328
								c-0.0776291,0.0448189-0.123394,0.1212749-0.123394,0.2109127v6.0870209
								c0,0.0879631,0.0370827,0.1535988,0.1124268,0.1989975l0.8489685,0.5040245
								C42.5918846,38.7105064,42.7257233,38.6479416,42.7257233,38.5214577z"/>
						</g>
					</g>
					<polygon class="st5" points="49.5910645,32.4774818 47.1547661,31.0310917 47.1547661,31.0310421 47.1547661,31.0310917 
						47.1547661,31.0310421 47.1547661,31.0310917 44.7184143,32.4774818 47.1547661,33.9238663 47.1547661,33.9238663 
						47.1547661,33.9238663 					"/>
				</g>
			</g>
		</g>
	</g>
	<g>
		<path class="st343" d="M68.5856857,14.6679878c-2.0414886-0.3443871-3.9756088,1.031374-4.3199921,3.0728455
			c-0.2122726,1.2583332,0.2305069,2.4744987,1.0783691,3.3041115l-0.5060654,1.0275669l1.1358566-0.530592
			c0.404808,0.2535458,0.8643799,0.4344864,1.3646851,0.5188866c2.0414658,0.3443851,3.9755859-1.0313759,4.3199692-3.0728245
			C72.0028992,16.9465122,70.6271362,15.0123959,68.5856857,14.6679878z"/>
		<path class="st1" d="M66.2918472,20.1214886l-0.3872986-0.4641857c-0.1492996-0.1789379-0.1252594-0.4449959,0.0536575-0.5942764
			l0.4459991-0.3721294c0.1789169-0.1492805,0.4449921-0.1252594,0.5942764,0.0536785c0,0,0.2060242,0.3096809,0.4477768,0.2543945
			c0.2750702-0.0629025,0.873024-0.4993687,1.1949997-0.8377075c0.2266541-0.238163-0.1545029-0.6584187-0.1545029-0.6584187
			c-0.1493073-0.1789379-0.1252823-0.4449959,0.0536575-0.5942993l0.4459686-0.3721066
			c0.1789398-0.1492825,0.4450226-0.1252613,0.5942993,0.0536766l0.387291,0.4641857
			C70.84095,18.1005802,67.0524826,21.0331306,66.2918472,20.1214886z"/>
	</g>
	<g>
		<g>
			<polygon class="st343" points="88.8040314,45.4106712 82.2205276,41.8876953 83.9541016,36.7415695 91.9670639,40.8901978 			"/>
			<polygon class="st343" points="91.9670639,40.8901978 83.9541016,36.7415695 89.6659775,35.5219231 			"/>
			
				<rect x="83.1338577" y="38.058506" transform="matrix(0.8880351 0.4597757 -0.4597757 0.8880351 28.613512 -35.2806969)" class="st5" width="7.2233663" height="6.101562"/>
			<polygon class="st343" points="83.9541016,36.7415695 81.2568665,41.9511871 86.5167007,41.6046219 			"/>
			<polygon class="st343" points="91.9670639,40.8901978 89.2698288,46.0997696 86.5167389,41.6046219 			"/>
			<polygon class="st343" points="89.2698288,46.0997696 81.2568665,41.9511871 87.3504028,40.0207253 			"/>
			<polygon class="st343" points="89.2698288,46.0997696 81.2568665,41.9511871 86.9687653,40.7315178 			"/>
		</g>
	</g>
	<g>
		<g>
			<path class="st439" d="M36.9056549,27.2656288c0,0,0.2953224,0.2089844,0.3978271,0.2149467
				c0.1025238,0.0059834,0.3373146-0.0703659,0.6279373-0.0416012c0.129612,0.0128365,0.464859,0.0873585,0.4837685,0.1402302
				c0.0189056,0.0528717-0.3034821,0.0449753-0.2953873,0.067646c0.0081139,0.0226498,0.6026764,0.2442131,0.5767822,0.3338127
				c-0.0130768,0.0453205-0.5890121-0.1708221-0.5890121-0.1708221s0.6281319,0.2189713,0.5917969,0.2882271
				c-0.036335,0.0692577-0.6312866-0.1621189-0.6312866-0.1621189s0.5675583,0.2073555,0.5368156,0.2659492
				c-0.0307465,0.0585938-0.5854034-0.0891857-0.5854034-0.0891857s0.482769,0.105505,0.4567032,0.1630116
				c-0.0135345,0.0298729-0.5431023-0.037077-0.9961052-0.2075081c-0.4189529-0.1575928-0.7644463-0.4186249-0.7644463-0.4186249"/>
		</g>
		<g>
			<linearGradient id="SVGID_8_" gradientUnits="userSpaceOnUse" x1="38.1366234" y1="22.7764587" x2="32.1256485" y2="28.4534855">
				<stop  offset="0" style="stop-color:#0063FF"/>
				<stop  offset="1" style="stop-color:#003AAC"/>
			</linearGradient>
			<path style="fill:url(#SVGID_8_);" d="M37.1127281,23.0146065c-0.5230865,0.7969971-1.7334213,1.7172318-2.4019356,2.2813969
				c0.3835945,0.5203857,2.5551987,2.1415997,2.5551987,2.1415997l-0.2015877,0.483181c0,0-4.1385765-0.7424049-4.2702789-2.7862263
				c-0.0788078-1.2227802,1.4689522-3.024107,2.6705627-3.8706684c1.126152-0.7934303,2.4447327-0.9228687,3.1386185-0.6411228"/>
		</g>
	</g>
	<g>
		<g>
			<path class="st470" d="M64.0328445,25.0679893c-0.4561195-0.1874466-1.1059227-0.7435169-1.0309448-1.0598793
				c0.0319633-0.1348343,0.3534164,0.2315941,0.4436035,0.141407c0.0593567-0.0593567,0.0105743-0.3305492-0.1541138-0.4623585
				c-0.1646652-0.1317902-0.5059814-0.3742619-0.422039-0.4582253c0.0839653-0.0839424,0.9197998,0.1020889,1.1072464,0.3855095
				c0.1183205,0.178894,0.2484322,0.5764999,0.3282814,1.0065708l0.3465195,0.4469757"/>
		</g>
		<g>
			<path class="st476" d="M72.7875824,60.5778809c0,0-1.4236526,0.4312019-1.4223709,0.7559853
				c0.0007172,0.1861382,2.0915375,0.1372261,2.2175598,0.0112038c0.2015915-0.2016106-0.1791992-0.7391853-0.1791992-0.7391853
				L72.7875824,60.5778809z"/>
			<path class="st476" d="M72.7875824,59.6707001v0.9351845c0,0,0.0503922,0.1511955,0.2631836,0.1679955
				c0.2128143,0.0167961,0.3528061-0.1679955,0.3528061-0.1679955l0.0223923-1.1703873"/>
			<path class="st476" d="M71.0893631,38.8899193c0,0-0.6577682,3.6443176-0.0251923,10.5967751
				c0.432045,4.7485657,1.4706039,10.4777412,1.7787857,10.4777412c0.3081589,0,0.5830078-0.0348129,0.5830078-0.0348129
				s1.7234344-6.9298935,1.7234344-10.8127251c0-5.9783287,2.0158768-7.3918839,1.0147476-10.4777412"/>
			<polygon class="st476" points="72.6278534,59.5896111 72.6996765,60.0000763 73.559227,60.0000763 73.5857086,59.5896111 			"/>
		</g>
		<g>
			<path class="st477" d="M77.2249146,60.5778809c0,0-1.423645,0.4312019-1.4223633,0.7559853
				c0.0007172,0.1861382,2.0915375,0.1372261,2.2175598,0.0112038c0.2015915-0.2016106-0.1791992-0.7391853-0.1791992-0.7391853
				L77.2249146,60.5778809z"/>
			<path class="st477" d="M77.2249146,59.6707001v0.9351845c0,0,0.0503922,0.1511955,0.2631912,0.1679955
				c0.2128143,0.0167961,0.3528061-0.1679955,0.3528061-0.1679955l0.0223846-1.1703873"/>
			<path class="st477" d="M73.6267471,38.8899193c0,0,0.5274124,4.6065483,1.1744766,9.9227982
				c0.2556534,2.1003914,2.1408615,10.8652306,2.3740845,11.1517181c0.3081589,0,0.7829208,0,0.7829208,0
				s0.9282227-7.6386642,0.9282227-11.5214958c0-5.9783478,0.8162308-6.717926-0.184906-9.8037834"/>
			<polygon class="st477" points="77.0448227,59.5896111 77.1166458,60.0000763 77.9762192,60.0000763 78.0026779,59.5896111 			"/>
			<path class="st477" d="M73.8968048,41.220356c0,0,0.5074463,5.8894043,1.1899948,9.3307419"/>
		</g>
		<g>
			
				<linearGradient id="SVGID_10_" gradientUnits="userSpaceOnUse" x1="71.5447769" y1="31.2915306" x2="71.5447769" y2="39.5344162">
				<stop  offset="0" style="stop-color:#0063FF"/>
				<stop  offset="1" style="stop-color:#003AAC"/>
			</linearGradient>
			<path style="fill:url(#SVGID_10_);" d="M78.9030914,38.1252098c0-0.380764,0.2964172-6.9483242-0.8445129-8.4336796
				c-0.3226776-0.6912098-1.5160828-1.4740868-2.4668198-1.8139248c-0.8384018-0.299696-1.36586-0.0660362-1.7474518-0.0111618
				c-1.6033936-0.4604225-5.2698441-0.1524811-6.286644-0.6746521c-0.5596313-0.2873802-3.1780624-2.5565701-3.1780624-2.5565701
				l-0.4895592,0.3807659c0,0,1.5642052,3.2685375,3.3229103,4.4108334
				c1.2369232,0.8033943,3.0720825,1.2497616,4.0529175,1.4441471c-0.0140762,0.1799622-0.0260925,0.3774815-0.0362091,0.5973892
				c-0.053978,1.1724319-0.1879654,3.2326164-0.0517578,6.6579399c0.0129623,0.3261108-0.339798,0.7426262-0.339798,0.9602051
				s0.4239578,0.9057236,3.9496689,0.9057236c2.9905777,0,4.4117355-0.4387093,4.4117355-0.9370537
				C79.1995087,38.5407448,78.9030914,38.5059738,78.9030914,38.1252098z"/>
			<g class="st460">
				<linearGradient id="SVGID_12_" gradientUnits="userSpaceOnUse" x1="71.0163956" y1="30.198698" x2="71.596962" y2="30.198698">
					<stop  offset="0" style="stop-color:#0063FF"/>
					<stop  offset="1" style="stop-color:#003AAC"/>
				</linearGradient>
				<path style="fill:url(#SVGID_12_);" d="M71.3473434,29.5264568c0.1807861,0.2355957,0.2121582,0.4632568,0.2086182,0.6883545
					c-0.022583,0.223999-0.0811768,0.4458008-0.2901611,0.6561279c-0.1818848-0.237793-0.2132568-0.4641113-0.2084961-0.6883545
					C71.080864,29.9595623,71.1394577,29.7391033,71.3473434,29.5264568z"/>
			</g>
		</g>
		<g>
			<path class="st470" d="M73.6267471,23.8449039c-0.1336365,0.526762-0.4587479,1.9751949-0.1598358,2.4290466
				c0.2954102,0.4484978,0.9432526,0.5771103,1.4383621,0.3690586c0.4951019-0.2080708,0.8381348-0.6872921,0.9962311-1.2005424
				c0.1581192-0.5132504,0.1540298-1.0615749,0.1200867-1.5975628"/>
		</g>
		<path class="st470" d="M74.2019882,25.7616577l-0.2072067,1.7559814c0,0,0.075264,0.4918423,0.3437805,0.6795254
			c0.6605301-0.0143585,0.9800262-0.6435795,0.9800262-0.6435795l-0.1977615-2.2611618"/>
		<g>
			<path class="st441" d="M75.3587952,24.3316097c-0.3399887-0.122324-0.8072891-0.0785465-1.2339859-0.1508064
				c-0.2963638-0.0501957-0.6131821-0.0566349-0.8922729-0.1788712c-0.5079041-0.222456-0.4616623-0.9899483-0.0477829-1.281702
				c0.1092224-0.0769806,0.2596359-0.1573334,0.3979721-0.12537c0.1487885,0.034399,0.2038574,0.1909046,0.3354721,0.25
				c0.0702972,0.0315704,0.1497116,0.0394478,0.226326,0.0311794c0.0560684-0.0060482,0.1133347-0.0216274,0.1558304-0.0587025
				c0.0720215-0.0628166,0.1018677-0.162447,0.1718445-0.2292652c0.0690613-0.0659275,0.1547012-0.1034813,0.2474976-0.1261101
				c0.1936035-0.0472584,0.4243469-0.0253258,0.5911026,0.0901871c0.0587692,0.0406876,0.1104431,0.0949516,0.1784363,0.116993
				c0.1099243,0.0356178,0.234375,0.0293522,0.3372498,0.0862064c0.2847061,0.1573315,0.4687576,0.5597477,0.4927979,0.8714085
				c0.0038757,0.0491295,0.0850296,0.0976505,0.1145554,0.1320934c0.2827454,0.3300037,0.3022614,0.7926464,0.2256775,1.2011757
				c-0.0765915,0.4084854-0.2177124,0.7988243-0.5513916,1.0671234c-0.1139297,0.0916004-0.2807465,0.1324844-0.432579,0.1861172
				C75.0869751,26.4212303,75.3859253,24.7984276,75.3587952,24.3316097"/>
		</g>
		<g>
			<path class="st470" d="M75.4382782,25.2321091c0.0048904-0.1185379,0.1793289-0.2175369,0.2922058-0.1359653
				c0.0744171,0.0537415,0.1127548,0.1079197,0.1179962,0.183876c0.0112915,0.1631203-0.0980377,0.4093571-0.2996292,0.4470425
				c-0.0765915,0.0142517-0.1585236-0.0828552-0.1629257-0.1574211"/>
		</g>
		<g>
			<g>
				<g>
					<path class="st446" d="M74.8208466,26.2836761c0.0569-0.0050049,0.1140137-0.0135765,0.1702347-0.0273075
						c0.1293335-0.0315704,0.3095779-0.1053085,0.4338608-0.2773705c0.0448151-0.0620766,0.0675354-0.1202126,0.0694504-0.177763
						c0.0004578-0.014492-0.0108795-0.0266113-0.0253525-0.0271111c-0.0147934-0.0003052-0.0266037,0.0109234-0.0271072,0.0253487
						c-0.0015259,0.0468006-0.0209961,0.0954952-0.0595093,0.1488247c-0.1149445,0.1591167-0.2830048,0.2276535-0.4037628,0.2571373
						c-0.1619873,0.0394688-0.334816,0.0342903-0.4841385,0.0262394c-0.014473-0.0009136-0.026825,0.0103569-0.0276108,0.0247822
						c-0.0007629,0.0144691,0.0103149,0.0268288,0.0247803,0.0276108
						C74.5938034,26.2895508,74.7067947,26.2937508,74.8208466,26.2836761z"/>
				</g>
				<g>
					<path class="st446" d="M74.3742218,26.1921616c0.0438232-0.023716,0.1001511-0.0228901,0.1477127-0.0078335
						c0.1667557,0.0528297-0.0139465,0.2647953-0.1646805,0.1557884c-0.0124283-0.0089855-0.0234375-0.0197563-0.0303802-0.032486
						C74.3051834,26.2678146,74.3303986,26.2158566,74.3742218,26.1921616z"/>
				</g>
			</g>
			<g>
				<g>
					<path class="st443" d="M75.9327698,24.5299339c-0.0386658-0.363142-0.1756058-0.7802429-0.4038086-1.065361
						c-0.2934036-0.3666019-0.6856308-0.6684513-1.0620728-0.6684513c-0.3145142,0-0.4721069,0.0725861-0.4721069,0.0725861
						c0.3879318,0.0919056,0.7196884,0.276762,1.0263901,0.5938854c0.3067093,0.3171234,0.4876862,0.752697,0.4960403,1.1937981"/>
				</g>
			</g>
			<path class="st443" d="M74.9814911,25.1355915c-0.0428848,0.4121628,0.2316132,0.7784805,0.6130753,0.8181667
				c0.3814621,0.0396652,0.7254791-0.2623138,0.7683411-0.6744995c0.0428619-0.4121838-0.231636-0.7785034-0.6130981-0.8181667
				C75.3683472,24.4214039,75.024353,24.7233849,74.9814911,25.1355915z"/>
			<path class="st462" d="M75.3091888,25.2011909c-0.0293961,0.2825508,0.1488876,0.5326366,0.3982162,0.5585518
				c0.2492981,0.0259342,0.475235-0.1820946,0.5046082-0.4646664c0.0293961-0.2825489-0.1488876-0.5326138-0.3981934-0.5585499
				C75.5644989,24.7105904,75.338562,24.9186192,75.3091888,25.2011909z"/>
		</g>
		<g>
			<g>
				<path class="st462" d="M74.338562,37.644619h-7.040123l-0.6895752-4.2536354
					c-0.0294189-0.1813736,0.1106186-0.3459511,0.2943878-0.3459511h6.2746277c0.2392273,0,0.4431686,0.1735191,0.4814377,0.4096832
					L74.338562,37.644619z"/>
				
					<linearGradient id="SVGID_14_" gradientUnits="userSpaceOnUse" x1="73.2848282" y1="38.4944153" x2="67.2056046" y2="32.4151955">
					<stop  offset="0" style="stop-color:#5789EE"/>
					<stop  offset="1" style="stop-color:#78BFFF"/>
				</linearGradient>
				<path style="fill:url(#SVGID_14_);" d="M74.1346207,37.644619h-7.040123l-0.6895752-4.2536354
					c-0.0294189-0.1813736,0.1106415-0.3459511,0.2943878-0.3459511h6.2746277c0.2392273,0,0.4431686,0.1735191,0.4814453,0.4096832
					L74.1346207,37.644619z"/>
				<path class="st464" d="M70.6322479,35.2325859c-0.0769577-0.3587036-0.3498459-0.6125107-0.6095047-0.5669289
					c-0.2596588,0.0456047-0.4077911,0.3733482-0.3308334,0.7320518c0.0769577,0.3587227,0.3498535,0.6125336,0.6095123,0.566925
					C70.5611038,35.9190521,70.7092285,35.5913124,70.6322479,35.2325859z"/>
			</g>
			<g>
				
					<linearGradient id="SVGID_16_" gradientUnits="userSpaceOnUse" x1="71.9423981" y1="33.2515068" x2="78.9377289" y2="33.2515068">
					<stop  offset="0" style="stop-color:#0063FF"/>
					<stop  offset="1" style="stop-color:#003AAC"/>
				</linearGradient>
				<path style="opacity:0.75;fill:url(#SVGID_16_);" d="M78.0585785,29.6915302
					c-0.3226776-0.6912098-1.175087-0.9833546-2.1258087-1.3231945l-0.2605743,3.2122269
					c0.1174545,1.4644699,0.6470871,3.5807228,0.6470871,3.5807228l-2.9439545,2.2272415l0.0043335,0.008007
					c-0.0563507,0.0353546-0.1046143,0.0630112-0.1183853,0.0630112c-0.040123,0-0.3254395-0.1616211-0.477005-0.1355324
					c-0.1515579,0.0260429-0.3254089,0.036293-0.3254089,0.0911217c0,0.0548325,0.2318115,0.0600548,0.2318115,0.1121864
					s-0.1560287,0.1557007-0.227356,0.1557007c-0.0713196,0-0.4906616-0.0302429-0.5170975,0.0006943
					c-0.0264587,0.030941,0.0891418,0.2205849,0.2050476,0.3232384c0.0552826,0.0489578,0.247406,0.1277199,0.3722153,0.1277199
					c0.3031311,0,0.7408142-0.1093979,0.7957306-0.1485863c0.0488968-0.0349007,0.1708069-0.102829,0.2891006-0.1665993
					l0.0996323,0.184288c0,0,4.0113983-0.3196259,5.2189713-0.8703194
					C78.9641037,35.1555862,78.9543533,30.8577385,78.0585785,29.6915302z"/>
				<path class="st470" d="M73.6267471,37.231411c0,0-0.3253708,0.1950836-0.3654938,0.1950836
					s-0.3254166-0.1382065-0.4769821-0.1159058c-0.1515579,0.0222816-0.3254089,0.0310478-0.3254089,0.0779381
					c0,0.0468674,0.2318115,0.0513268,0.2318115,0.0959091s-0.1560287,0.1331596-0.227356,0.1331596
					c-0.0713196,0-0.4906616-0.0258713-0.5171204,0.0005875c-0.0264359,0.0264359,0.0891647,0.1885986,0.2050705,0.276371
					c0.0552826,0.0418625,0.247406,0.1092224,0.3722382,0.1092224c0.3031311,0,0.7407913-0.0935364,0.7957077-0.1270447
					c0.1072083-0.0654259,0.5661469-0.2674713,0.5661469-0.2674713"/>
				
					<linearGradient id="SVGID_18_" gradientUnits="userSpaceOnUse" x1="76.3192825" y1="31.291544" x2="76.3192825" y2="38.3391724">
					<stop  offset="0" style="stop-color:#0063FF"/>
					<stop  offset="1" style="stop-color:#003AAC"/>
				</linearGradient>
				<path style="fill:url(#SVGID_18_);" d="M75.5917587,27.8776054c0,0,2.0602264,0.1301346,3.0393372,2.0339642
					c0.9791107,1.9038277,0.6733017,5.9610958,0.0749588,6.5594425c-0.5983505,0.5983467-5.1566772,1.3357697-5.1566772,1.3357697
					l-0.1740494-0.4182549l3.2093124-2.0054169c0,0-0.9996719-3.350132-0.9996719-4.7100086"/>
			</g>
		</g>
		<g>
			<linearGradient id="SVGID_20_" gradientUnits="userSpaceOnUse" x1="74.963768" y1="28.8590889" x2="74.963768" y2="27.5535851">
				<stop  offset="0" style="stop-color:#003AAC"/>
				<stop  offset="1" style="stop-color:#003AAC"/>
			</linearGradient>
			<path style="fill:url(#SVGID_20_);" d="M74.3371658,28.1971645c0.1481705,0.1481724,0.2111664,0.3591385,0.3539581,0.6619244
				c0.6844482-0.2256088,0.8992386-0.9814835,0.8992386-0.9814835l-0.2731705-0.3240204
				C75.3171921,27.5535851,74.7793121,28.1100025,74.3371658,28.1971645z"/>
			
				<linearGradient id="SVGID_22_" gradientUnits="userSpaceOnUse" x1="74.0232544" y1="28.7567825" x2="74.0232544" y2="27.5176392">
				<stop  offset="0" style="stop-color:#003AAC"/>
				<stop  offset="1" style="stop-color:#003AAC"/>
			</linearGradient>
			<path style="fill:url(#SVGID_22_);" d="M74.338562,28.1971645c-0.1325302,0.1325512-0.2537003,0.3231297-0.3437805,0.559618
				c-0.1742172-0.1742172-0.3026123-0.802763-0.2852631-0.8790474c0.0858307-0.1323757,0.2852631-0.360096,0.2852631-0.360096
				S74.0411301,27.8997326,74.338562,28.1971645z"/>
		</g>
	</g>
	<path class="st485" d="M67.7053375,5.1001239c-0.1361008-0.8923874-0.7777481-1.5685656-1.5501633-1.5685656
		c-0.1279221,0-0.2516403,0.0205789-0.3707123,0.0555472c-0.2741928-1.6500422-1.4718933-2.8923378-2.9080124-2.8923378
		c-1.1604424,0-2.1645966,0.8114975-2.6522827,1.9933841c-0.1730385-0.0467596-0.3526192-0.072228-0.5371971-0.072228
		c-0.7927933,0-1.4977913,0.4557076-1.9492264,1.16311c-0.2286415-0.1569319-0.4920731-0.2474756-0.7732315-0.2474756
		c-0.772419,0-1.4140892,0.6761782-1.5501938,1.5685656H67.7053375z"/>
	<path class="st485" d="M88.5721207,8.8192806c-0.0996475-0.6532927-0.5693588-1.1482935-1.1348267-1.1482935
		c-0.0936508,0-0.1842194,0.015059-0.2713776,0.0406613c-0.2007217-1.2079377-1.0775299-2.117373-2.1288452-2.117373
		c-0.8495255,0-1.5846252,0.5940666-1.9416504,1.459281c-0.1266785-0.0342307-0.2581253-0.052876-0.3932571-0.052876
		c-0.580368,0-1.0964813,0.3336096-1.4269485,0.8514628c-0.1673813-0.1148791-0.3602371-0.1811562-0.5660629-0.1811562
		c-0.5654602,0-1.0351944,0.4950008-1.1348419,1.1482935H88.5721207z"/>
	<path class="st485" d="M20.5878792,6.8044171c-0.1766853-1.1583858-1.0095501-2.036098-2.0122166-2.036098
		c-0.1660461,0-0.326643,0.0267024-0.4811916,0.0720992c-0.3559036-2.1418555-1.910614-3.7544205-3.7747602-3.7544205
		c-1.5063334,0-2.8097773,1.053369-3.4428406,2.5875244c-0.2246151-0.0606959-0.4576931-0.0937572-0.697298-0.0937572
		c-1.0290804,0-1.9442282,0.5915401-2.5301952,1.5097716C7.3525877,4.8858385,7.0106235,4.7683191,6.6456561,4.7683191
		c-1.0026417,0-1.8355551,0.8777122-2.0122399,2.036098H20.5878792z"/>
	<path class="st485" d="M83.4438553,8.8123245c-0.2650833-1.7379532-1.5146484-3.0548048-3.0189743-3.0548048
		c-0.2491226,0-0.4900665,0.0400624-0.7219391,0.1081715c-0.5339737-3.213475-2.866539-5.632844-5.6633606-5.632844
		c-2.2599869,0-4.2155762,1.5803941-5.1653748,3.8821228c-0.336998-0.0910635-0.6866913-0.140666-1.0461731-0.140666
		c-1.5439529,0-2.9169693,0.8875012-3.7961121,2.2651453c-0.4452782-0.305613-0.9583359-0.4819298-1.5059052-0.4819298
		c-1.5042877,0-2.7539253,1.3168516-3.0190086,3.0548048H83.4438553z"/>
	<path class="st485" d="M32.4269218,9.3546429c-0.2390747-1.5674405-1.366045-2.7550941-2.7227783-2.7550941
		c-0.2246819,0-0.4419899,0.0361314-0.6511135,0.0975585c-0.4815807-2.8981972-2.5852985-5.0801988-5.1077194-5.0801988
		c-2.0382576,0-3.8019791,1.4253398-4.6585922,3.5012431c-0.3039341-0.082129-0.6193161-0.1268649-0.943531-0.1268649
		c-1.3924751,0-2.630784,0.800427-3.4236708,2.0429091c-0.4015923-0.275629-0.8643122-0.4346471-1.3581591-0.4346471
		c-1.356699,0-2.4837341,1.1876535-2.7228107,2.7550941H32.4269218z"/>
</g>
</svg>
