<svg xmlns="http://www.w3.org/2000/svg" xmlns:xlink="http://www.w3.org/1999/xlink" width="546.275" height="423.281" viewBox="0 0 546.275 423.281">
  <defs>
    <linearGradient id="linear-gradient" x1="0.5" y1="1" x2="0.5" gradientUnits="objectBoundingBox">
      <stop offset="0.005" stop-color="#fcf5f1"/>
      <stop offset="0.477" stop-color="#fceeec"/>
      <stop offset="1" stop-color="#fce1e3"/>
    </linearGradient>
    <linearGradient id="linear-gradient-2" x1="0.5" y1="1" x2="0.5" gradientUnits="objectBoundingBox">
      <stop offset="0" stop-color="#466de5"/>
      <stop offset="1" stop-color="#78bfff"/>
    </linearGradient>
    <linearGradient id="linear-gradient-4" x1="1.294" y1="0.807" x2="-0.165" y2="0.279" xlink:href="#linear-gradient-2"/>
    <linearGradient id="linear-gradient-6" x1="0.497" y1="0.987" x2="0.497" y2="0.033" xlink:href="#linear-gradient-2"/>
    <linearGradient id="linear-gradient-7" x1="0.29" y1="1.082" x2="0.781" y2="0.221" xlink:href="#linear-gradient-2"/>
    <linearGradient id="linear-gradient-8" x1="2.079" y1="1.011" x2="2.079" y2="0.007" gradientUnits="objectBoundingBox">
      <stop offset="0" stop-color="#29225e"/>
      <stop offset="1" stop-color="#3f368c"/>
    </linearGradient>
    <linearGradient id="linear-gradient-9" x1="3.277" y1="1.006" x2="3.277" y2="0.005" xlink:href="#linear-gradient-8"/>
    <linearGradient id="linear-gradient-10" x1="0.459" y1="0.6" x2="1.246" y2="0.278" gradientUnits="objectBoundingBox">
      <stop offset="0" stop-color="#fcc73c"/>
      <stop offset="1" stop-color="#fc7a3c"/>
    </linearGradient>
    <linearGradient id="linear-gradient-11" x1="0.755" y1="1.136" x2="0.18" y2="0.178" gradientUnits="objectBoundingBox">
      <stop offset="0" stop-color="#b3d3f4"/>
      <stop offset="1" stop-color="#d3dced"/>
    </linearGradient>
    <linearGradient id="linear-gradient-12" x1="0.5" y1="1" x2="0.5" gradientUnits="objectBoundingBox">
      <stop offset="0" stop-color="#ffd5a7"/>
      <stop offset="0.372" stop-color="#ffd7aa"/>
      <stop offset="0.654" stop-color="#ffddb3"/>
      <stop offset="0.907" stop-color="#ffe8c3"/>
      <stop offset="1" stop-color="#fec"/>
    </linearGradient>
    <linearGradient id="linear-gradient-13" x1="0.755" y1="1.235" x2="0.245" y2="-0.235" gradientUnits="objectBoundingBox">
      <stop offset="0" stop-color="#cde8ff"/>
      <stop offset="1" stop-color="#eee7e9"/>
    </linearGradient>
    <linearGradient id="linear-gradient-14" x1="0.75" y1="1.588" x2="0.25" y2="0.412" xlink:href="#linear-gradient-13"/>
    <linearGradient id="linear-gradient-15" x1="-11.573" y1="1.069" x2="-11.037" y2="0.223" xlink:href="#linear-gradient-2"/>
    <linearGradient id="linear-gradient-16" x1="0.92" y1="0.308" x2="-0.115" y2="1.072" xlink:href="#linear-gradient-10"/>
    <linearGradient id="linear-gradient-17" x1="0.5" y1="1" x2="0.5" y2="0" xlink:href="#linear-gradient-8"/>
    <linearGradient id="linear-gradient-19" x1="0.5" y1="0.433" x2="0.5" y2="0.97" xlink:href="#linear-gradient-10"/>
    <linearGradient id="linear-gradient-20" x1="0.89" y1="1.185" x2="0.104" y2="-0.137" gradientUnits="objectBoundingBox">
      <stop offset="0" stop-color="#5789ee"/>
      <stop offset="1" stop-color="#78bfff"/>
    </linearGradient>
    <linearGradient id="linear-gradient-21" x1="0" y1="0.5" x2="1" y2="0.5" xlink:href="#linear-gradient-10"/>
    <linearGradient id="linear-gradient-22" x1="0.5" y1="0.344" x2="0.5" y2="1.054" xlink:href="#linear-gradient-10"/>
    <linearGradient id="linear-gradient-23" x1="0.5" y1="1" x2="0.5" gradientUnits="objectBoundingBox">
      <stop offset="0" stop-color="#fcae3c"/>
      <stop offset="1" stop-color="#fc7a3c"/>
    </linearGradient>
    <linearGradient id="linear-gradient-24" x1="0.5" y1="1" x2="0.5" y2="0" xlink:href="#linear-gradient-23"/>
    <linearGradient id="linear-gradient-29" x1="0.5" y1="0.317" x2="0.5" y2="1.015" xlink:href="#linear-gradient-10"/>
    <linearGradient id="linear-gradient-31" x1="0" y1="0.5" x2="1" y2="0.5" xlink:href="#linear-gradient-10"/>
  </defs>
  <g id="contact-us" transform="translate(-266.468 -117.122)">
    <path id="Path_1592" data-name="Path 1592" d="M297.2,386.444H802.085c16.45,0-12.992,8.588-22.638,18.234s-9.083,13.657-33.087,20.957c-51.621,15.7-73.708-15.03-155.665-2.934-34.919,5.153-79.452,15-114.573,9.767-29.583-4.408-36.765-24.581-59.122-26.215-34.32-2.509-51.443-.043-82.756-1.574C307.415,403.367,254.288,386.444,297.2,386.444Z" transform="translate(5.759 106.448)" fill="url(#linear-gradient)"/>
    <g id="Group_1824" data-name="Group 1824" transform="translate(266.468 318.21)">
      <g id="Group_1821" data-name="Group 1821" transform="translate(421.859)">
        <path id="Path_1593" data-name="Path 1593" d="M568.958,435.928c-1.614-55.571,10.948-123.016,54.726-161.3,7.026-6.143,15.617-14.06,25.589-13.339,4.639.336,6.94,5.644,7.638,9.581,1.245,7.029.034,14.259-1.683,21.19-9.477,38.269-40.729,105.26-48.722,143.865" transform="translate(-568.823 -261.246)" fill="url(#linear-gradient-2)"/>
        <path id="Path_1594" data-name="Path 1594" d="M636.1,272.011c-43.516,56.874-51.344,127.941-49.971,158.7" transform="translate(-562.038 -256.991)" fill="none" stroke="#92d0ff" stroke-miterlimit="10" stroke-width="1"/>
        <g id="Group_1820" data-name="Group 1820" transform="translate(37.682 52.847)">
          <path id="Path_1595" data-name="Path 1595" d="M595.831,420.957c5.861-35.964,12.016-65.335,32.626-95.384,8.48-12.362,24.814-27.64,37.81-26.377,13.944,1.356,4.049,22.426-4.223,38.15a221.746,221.746,0,0,0-22.881,67.2c1.151-7.049,6.041-27.119,20.493-36.038,4.244-2.62,14.682-4.149,14.682,4.537,0,15.263-14.836,33.592-18.547,47.911" transform="translate(-595.831 -299.122)" fill="url(#linear-gradient-2)"/>
          <path id="Path_1596" data-name="Path 1596" d="M655.522,307.129c-13.368,16.969-40.021,75.686-43.292,109.6" transform="translate(-589.349 -295.958)" fill="none" stroke="#92d0ff" stroke-miterlimit="10" stroke-width="1"/>
          <path id="Path_1597" data-name="Path 1597" d="M652.019,353.017c-10.272,10.272-16.573,29.1-20.139,46.639" transform="translate(-581.583 -277.821)" fill="none" stroke="#92d0ff" stroke-miterlimit="10" stroke-width="1"/>
        </g>
      </g>
      <g id="Group_1822" data-name="Group 1822" transform="translate(0 23.012)">
        <path id="Path_1598" data-name="Path 1598" d="M360.723,429.409c-8.476-70.114-2.318-100.668,5.665-120.089,3.72-9.051,9.065-18.014,16.63-24.4,30.273-25.547,29.353,24.122,27.931,39.178-3.24,34.3-11.837,70.962-12.616,105.31" transform="translate(-230.825 -277.739)" fill="url(#linear-gradient-4)"/>
        <path id="Path_1599" data-name="Path 1599" d="M360.844,429c-.961-22.057-10.806-43.576-23.345-61.377-12.612-17.9-29.957-32.183-41.312-50.986-6.083-10.075-15.709-25.915-1.475-34.177,15.783-9.16,38.968.444,51.662,10.916,13.8,11.389,22.876,27.524,30.45,43.459,13.376,28.145,16.061,61,16.27,92.164" transform="translate(-258.228 -277.327)" fill="url(#linear-gradient-2)"/>
        <path id="Path_1600" data-name="Path 1600" d="M372.092,412.8c.063-22.451-11.375-46.152-29.44-63.689-11.8-11.458-25.919-22.2-42.019-26.921-8.358-2.454-31.718-6.341-34.061,7.551-.887,5.263,3.862,15.155,15.242,24.167,15.821,12.527,59.527,32.005,64.8,58.892" transform="translate(-266.468 -261.132)" fill="url(#linear-gradient-6)"/>
        <path id="Path_1601" data-name="Path 1601" d="M274.265,327.392c30.278,8.233,72.484,35.869,80.507,81.851" transform="translate(-263.387 -258.114)" fill="none" stroke="#92d0ff" stroke-miterlimit="10" stroke-width="1"/>
        <path id="Path_1602" data-name="Path 1602" d="M298.109,287.675c30.344,16,67.351,65.976,71.491,137.265" transform="translate(-253.962 -273.812)" fill="none" stroke="#92d0ff" stroke-miterlimit="10" stroke-width="1"/>
        <path id="Path_1603" data-name="Path 1603" d="M389.282,282.592c-17.055,41.422-20.026,99.572-19.035,144.357" transform="translate(-225.517 -275.821)" fill="none" stroke="#92d0ff" stroke-miterlimit="10" stroke-width="1"/>
      </g>
      <g id="Group_1823" data-name="Group 1823" transform="translate(32.306 123.329)">
        <path id="Path_1604" data-name="Path 1604" d="M341.54,400.991c-2.71-12.111-5.09-24.733-12.309-35.167-4.721-6.824-14.349-16.333-22.918-16.183-6.371.11-7.819,6.238-7.078,11.755,1.944,14.46,9.962,18.873,13.075,34.509-1.553-5.923-11.11-26.431-19.5-18.59-9.23,8.624,4.533,23.677,4.533,23.677" transform="translate(-289.623 -349.639)" fill="url(#linear-gradient-7)"/>
        <path id="Path_1605" data-name="Path 1605" d="M294.487,372.21c4.389,5.027,10.025,12.2,12.295,19.86" transform="translate(-287.7 -340.718)" fill="none" stroke="#92d0ff" stroke-miterlimit="10" stroke-width="1"/>
        <path id="Path_1606" data-name="Path 1606" d="M303.994,356c11.624,11.625,19.741,36.155,21.845,42.475" transform="translate(-283.943 -347.124)" fill="none" stroke="#92d0ff" stroke-miterlimit="10" stroke-width="1"/>
      </g>
    </g>
    <g id="Group_1830" data-name="Group 1830" transform="translate(364.055 117.122)">
      <path id="Path_1607" data-name="Path 1607" d="M560.531,361.043h157.76a44.18,44.18,0,0,0,44.18-44.18h0a44.18,44.18,0,0,0-44.18-44.179H381.481a23.435,23.435,0,0,1-23.435-23.434h0a23.434,23.434,0,0,1,23.435-23.435h283a20.752,20.752,0,0,0,20.751-20.751h0a20.751,20.751,0,0,0-20.751-20.75H405.509A11.417,11.417,0,0,1,394.094,172.9h0a11.416,11.416,0,0,1,11.416-11.416h75.3" transform="translate(-327.859 -99.59)" fill="none" stroke="#7d2ba4" stroke-miterlimit="10" stroke-width="1" stroke-dasharray="4"/>
      <g id="Group_1825" data-name="Group 1825" transform="translate(142.728 24.653)">
        <path id="Path_1608" data-name="Path 1608" d="M466.747,135.13a24.029,24.029,0,0,0-20.786,40.893l-3.245,6.59,7.283-3.4a24.038,24.038,0,1,0,16.749-44.08Z" transform="translate(-438.707 -134.791)" fill="#f3faff"/>
        <path id="Path_1609" data-name="Path 1609" d="M449.144,166.789l-2.484-2.977A2.7,2.7,0,0,1,447,160l2.86-2.386a2.706,2.706,0,0,1,3.81.343s1.321,1.987,2.871,1.632c1.764-.4,5.6-3.2,7.663-5.372,1.454-1.528-.991-4.222-.991-4.222a2.707,2.707,0,0,1,.345-3.812l2.86-2.386a2.7,2.7,0,0,1,3.81.345l2.484,2.976C478.314,153.83,454.02,172.635,449.144,166.789Z" transform="translate(-435.812 -131.479)" fill="#b3d3f4"/>
      </g>
      <path id="Path_1610" data-name="Path 1610" d="M537.626,170.3c3.562-3.417,5.037-6.93,9.944-8.028a9.242,9.242,0,0,0,2.93-.89c2.389-1.485,1.9-4.869,2.438-7.55,1.056-5.281,7.954-8.62,13.012-6.3,2.118.973,4.038,2.767,6.38,2.608,4.683-.319,4.122-6.1,7.322-9.39,3.022-3.111,9.181-3.519,13.11-1.546a20.13,20.13,0,0,1,6.9,5.6c1.9,2.468,1.82,6.28,3.225,9,1.339,2.629,4.547,3.771,5.946,6.357a7.874,7.874,0,0,1,.6,7c-2,4.8-7.868,8.264-13.188,8.264H524.368S533.658,174.1,537.626,170.3Z" transform="translate(-262.122 -108.87)" fill="#f3faff"/>
      <path id="Path_1611" data-name="Path 1611" d="M427.82,144.418c-3.011-2.888-4.257-5.857-8.4-6.785a7.814,7.814,0,0,1-2.477-.752c-2.019-1.254-1.607-4.116-2.059-6.382-.893-4.463-6.724-7.285-11-5.321-1.79.823-3.413,2.34-5.393,2.2-3.958-.269-3.484-5.151-6.189-7.936-2.555-2.63-7.759-2.973-11.08-1.306a16.989,16.989,0,0,0-5.831,4.735c-1.61,2.085-1.538,5.308-2.725,7.605-1.132,2.221-3.842,3.187-5.026,5.373a6.657,6.657,0,0,0-.505,5.913c1.69,4.057,6.65,6.985,11.147,6.985h60.743S431.174,147.634,427.82,144.418Z" transform="translate(-324.456 -117.122)" fill="#f3faff"/>
      <g id="Group_1827" data-name="Group 1827" transform="translate(335.16 29.484)">
        <g id="Group_1826" data-name="Group 1826">
          <path id="Path_1612" data-name="Path 1612" d="M623.273,199.451l-42.217-22.591,11.117-33,51.383,26.6Z" transform="translate(-574.876 -136.039)" fill="#cfe0f5"/>
          <path id="Path_1613" data-name="Path 1613" d="M640.407,172.678l-51.383-26.6,36.628-7.821Z" transform="translate(-571.727 -138.254)" fill="#cfe0f5"/>
          <rect id="Rectangle_1450" data-name="Rectangle 1450" width="46.32" height="39.127" transform="translate(23.624 7.808) rotate(27.373)" fill="#fff4e1"/>
          <path id="Path_1614" data-name="Path 1614" d="M593.923,143.86l-17.3,33.407,33.729-2.222Z" transform="translate(-576.627 -136.039)" fill="#e6f1fc"/>
          <path id="Path_1615" data-name="Path 1615" d="M635.752,162.927l-17.3,33.407L600.8,167.508Z" transform="translate(-567.072 -128.502)" fill="#e6f1fc"/>
          <path id="Path_1616" data-name="Path 1616" d="M628.01,197.913l-51.383-26.6L615.7,158.931Z" transform="translate(-576.627 -130.082)" fill="#e6f1fc" style="mix-blend-mode: multiply;isolation: isolate"/>
          <path id="Path_1617" data-name="Path 1617" d="M628.01,196.622l-51.383-26.6,36.628-7.821Z" transform="translate(-576.627 -128.791)" fill="#e6f1fc"/>
        </g>
      </g>
      <g id="Group_1829" data-name="Group 1829" transform="translate(0 69.329)">
        <g id="Group_1828" data-name="Group 1828">
          <path id="Path_1618" data-name="Path 1618" d="M381.132,201.079l-34.4,8.613-10.321-23.634,41.425-10.973Z" transform="translate(-336.411 -163.542)" fill="#cfe0f5"/>
          <path id="Path_1619" data-name="Path 1619" d="M377.835,178.354l-41.425,10.973,16.2-22.515Z" transform="translate(-336.411 -166.812)" fill="#cfe0f5"/>
          <rect id="Rectangle_1451" data-name="Rectangle 1451" width="34.305" height="28.978" transform="matrix(0.967, -0.256, 0.256, 0.967, 3.465, 19.359)" fill="#fff4e1"/>
          <path id="Path_1620" data-name="Path 1620" d="M336.411,182.949l7.134,26.932,17.4-18Z" transform="translate(-336.411 -160.434)" fill="#e6f1fc"/>
          <path id="Path_1621" data-name="Path 1621" d="M370.886,175.085l7.134,26.932-24.027-7.029Z" transform="translate(-329.461 -163.542)" fill="#e6f1fc"/>
          <path id="Path_1622" data-name="Path 1622" d="M382.948,198.71l-41.425,10.973L356.8,183.45Z" transform="translate(-334.39 -160.236)" fill="#e6f1fc" style="mix-blend-mode: multiply;isolation: isolate"/>
          <path id="Path_1623" data-name="Path 1623" d="M382.948,197.657,341.523,208.63l16.2-22.515Z" transform="translate(-334.39 -159.183)" fill="#e6f1fc"/>
        </g>
      </g>
    </g>
    <g id="Group_1839" data-name="Group 1839" transform="translate(461.697 166.323)">
      <g id="Group_1831" data-name="Group 1831" transform="translate(82.456)">
        <path id="Path_1624" data-name="Path 1624" d="M465.491,163.008l1.277-1.992a14.226,14.226,0,0,1-.364-3.217c0-.8.264-2.917.583-3.093s.466,1.789.6,1.713,1.162-3.932,1.738-3.879c.292.028-.71,3.766-.71,3.766s.988-4.057,1.444-3.916-.631,4.011-.631,4.011.953-3.678,1.338-3.558-.615,3.7-.615,3.7.946-3.188,1.155-3.008c.321.275-.04,2.472-.957,5.574-.158.537-.932,2.313-.974,2.457s-.914,3.356-.914,3.356" transform="translate(-465.491 -152.385)" fill="#fc8975"/>
        <path id="Path_1625" data-name="Path 1625" d="M467.1,155.555a5.006,5.006,0,0,1,1.035,2.495,3.883,3.883,0,0,1-.361,1.592" transform="translate(-464.855 -151.133)" fill="none" stroke="#cc6658" stroke-miterlimit="10" stroke-width="0.5"/>
      </g>
      <g id="Group_1832" data-name="Group 1832" transform="translate(15.968 102.433)">
        <path id="Path_1626" data-name="Path 1626" d="M435.248,332.221s7.46,2.725,7.512,4.931c.029,1.264-10.823,1.229-11.5.392-1.081-1.341.8-5.045.8-5.045Z" transform="translate(-412.664 -183.739)" fill="#352e72"/>
        <path id="Path_1627" data-name="Path 1627" d="M434.858,328.232l.167,6.35a1.6,1.6,0,0,1-1.335,1.179c-1.1.144-1.86-1.091-1.86-1.091l-.325-7.943" transform="translate(-412.435 -185.911)" fill="#fc8975"/>
        <path id="Path_1628" data-name="Path 1628" d="M445.361,226.78s4.062,24.651,2.02,71.949c-1.394,32.3-5.757,71.353-7.356,71.4a20.679,20.679,0,0,1-3.029-.153s-10.174-46.808-10.868-73.171c-1.066-40.593-11.772-49.9-7.131-71" transform="translate(-417.837 -225.801)" fill="url(#linear-gradient-8)"/>
        <path id="Path_1629" data-name="Path 1629" d="M435.9,327.4l-.3,2.8-4.458.122-.21-2.783Z" transform="translate(-412.662 -185.647)" fill="#75a1e9"/>
      </g>
      <g id="Group_1833" data-name="Group 1833" transform="translate(1.874 102.794)">
        <path id="Path_1630" data-name="Path 1630" d="M418.755,332.674s7.46,2.725,7.512,4.931c.029,1.264-10.823,1.229-11.5.392-1.083-1.341.8-5.045.8-5.045Z" transform="translate(-405.089 -183.921)" fill="#352e72"/>
        <path id="Path_1631" data-name="Path 1631" d="M418.365,328.685l.167,6.35a1.6,1.6,0,0,1-1.335,1.179c-1.1.144-1.86-1.091-1.86-1.091l-.325-7.943" transform="translate(-404.861 -186.093)" fill="#fc8975"/>
        <path id="Path_1632" data-name="Path 1632" d="M436.195,227.039s-1.914,31.354-4.321,67.544c-.952,14.3-9.165,74.079-10.323,76.057l-4.06.112s-6.177-51.734-6.869-78.1c-1.066-40.592-5.432-45.5-.79-66.594" transform="translate(-407.736 -226.06)" fill="url(#linear-gradient-9)"/>
        <path id="Path_1633" data-name="Path 1633" d="M419.481,327.846l-.3,2.8-4.458.123-.211-2.783Z" transform="translate(-405.057 -185.83)" fill="#75a1e9"/>
        <path id="Path_1634" data-name="Path 1634" d="M428.7,238.131s-1.582,40.062-4.508,63.525" transform="translate(-401.231 -221.289)" fill="none" stroke="#4a578e" stroke-miterlimit="10" stroke-width="0.5"/>
      </g>
      <path id="Path_1635" data-name="Path 1635" d="M440.985,167.878c-2.545-4.488-9.447-3.809-13.393-1.754-5.6,2.916-6.927,11.225-12.158,14.78-2.315,1.572-5.109,2.5-6.965,4.613a9.636,9.636,0,0,0-1.5,9.34,14.372,14.372,0,0,0,6.27,7.326,30.476,30.476,0,0,0,9.1,3.371c5.042,1.162,10.413,1.785,15.306.082s9.139-6.265,9.122-11.551c-.015-4.473-2.951-8.655-2.437-13.1" transform="translate(-406.393 -147.585)" fill="#081466"/>
      <path id="Path_1636" data-name="Path 1636" d="M488.556,158.912S475.2,178.08,472.139,182.443c-4.754,6.785-24.284,8.1-34.729,14.282l-7.24.787c-3.439.7-15.307,9.146-16.416,12.549-2.532,7.766-5.087,15.645-5.541,23.818-.154,2.771-.063,5.55.028,8.324q.2,6.023.392,12.045a1.315,1.315,0,0,0,.187.766,1.228,1.228,0,0,0,.738.366c13.111,3.026,26.771,1.4,40.116-.247a2.209,2.209,0,0,0,1.309-.46,2.278,2.278,0,0,0,.483-1.62c.071-2.569-.077-5.136-.179-7.7a222.555,222.555,0,0,1,1.171-33.3c4.134-2.594,21.23-7.961,26.952-15.945a68.482,68.482,0,0,0,12.806-36.279Z" transform="translate(-405.706 -149.806)" fill="url(#linear-gradient-10)"/>
      <path id="Path_1637" data-name="Path 1637" d="M431.166,188.611l-.26-9.171-4.064.561-2.912,9.3a4.489,4.489,0,0,0,4.338,1.51C430.86,190.455,431.166,188.611,431.166,188.611Z" transform="translate(-399.462 -141.692)" fill="#fc8975"/>
      <path id="Path_1638" data-name="Path 1638" d="M422.908,180.084c-.209-3.6.855-7.458,2.754-9.57s5.44-2.418,8.053-2.061a4.9,4.9,0,0,1,2.488,1.006c2.578,2.145,2.407,7.086,2.225,10.114a12.532,12.532,0,0,1-2.517,7.151,4.908,4.908,0,0,1-1.85,1.51,8.688,8.688,0,0,1-8.094-1.205C423.914,185.4,423.058,182.65,422.908,180.084Z" transform="translate(-399.876 -146.085)" fill="#fc8975"/>
      <path id="Path_1639" data-name="Path 1639" d="M423.052,184.284c-.956.446-2.44.77-3.183-.279-.593-.839-.077-2.1.133-2.989a79.5,79.5,0,0,1,2.507-8.55,16.053,16.053,0,0,1,1.976-4.131c1.759-2.421,6.756-3.545,9.693-3.266,3.229-.213,8.371,5.047,5.557,11.165-.419-1.5-1.012-1.37-2.114-2.633a6.5,6.5,0,0,1-4.02,1.773c-1.953.177-4.209-.268-5.641,1.1-1.468,1.4-1.164,3.9-2.225,5.644A6.008,6.008,0,0,1,423.052,184.284Z" transform="translate(-401.176 -147.389)" fill="#081466"/>
      <path id="Path_1640" data-name="Path 1640" d="M425.187,177.6a1.159,1.159,0,0,0-.956-1.427c-1.485-.158-1.928,2.175-1.352,3.236.427.785,1.505,1.433,2.064.487" transform="translate(-399.973 -142.987)" fill="#fc8975"/>
      <g id="Group_1838" data-name="Group 1838" transform="translate(17.788 17.204)">
        <g id="Group_1836" data-name="Group 1836" transform="translate(5.598 19.532)">
          <g id="Group_1834" data-name="Group 1834">
            <path id="Path_1641" data-name="Path 1641" d="M427.472,182.057a6.971,6.971,0,0,1-1.091-.179,4.759,4.759,0,0,1-2.782-1.819,2.143,2.143,0,0,1-.445-1.166.168.168,0,1,1,.336-.011,1.809,1.809,0,0,0,.381.977,4.443,4.443,0,0,0,2.59,1.687,10.575,10.575,0,0,0,3.1.172.172.172,0,0,1,.018.343A14.409,14.409,0,0,1,427.472,182.057Z" transform="translate(-423.154 -178.715)" fill="#081466"/>
          </g>
          <g id="Group_1835" data-name="Group 1835" transform="translate(5.808 2.62)">
            <path id="Path_1642" data-name="Path 1642" d="M428.691,180.714a1.231,1.231,0,0,0-.947-.052c-1.069.347.089,1.737,1.056,1.023a.676.676,0,0,0,.2-.213A.6.6,0,0,0,428.691,180.714Z" transform="translate(-427.317 -180.593)" fill="#081466"/>
          </g>
        </g>
        <g id="Group_1837" data-name="Group 1837" transform="translate(2.787)">
          <path id="Path_1643" data-name="Path 1643" d="M421.139,176.087a14.3,14.3,0,0,1,2.59-6.987c1.881-2.4,4.4-4.384,6.81-4.384a7.715,7.715,0,0,1,3.028.476,12.96,12.96,0,0,0-6.581,3.9,11.839,11.839,0,0,0-3.181,7.83" transform="translate(-421.139 -164.716)" fill="#75a1e9"/>
        </g>
        <path id="Path_1644" data-name="Path 1644" d="M428.028,176.972a4.732,4.732,0,0,1-3.932,5.368,4.68,4.68,0,0,1-4.927-4.424,4.731,4.731,0,0,1,3.932-5.366A4.678,4.678,0,0,1,428.028,176.972Z" transform="translate(-419.142 -161.629)" fill="#75a1e9"/>
        <path id="Path_1645" data-name="Path 1645" d="M425.651,176.89a3.186,3.186,0,0,1-2.553,3.664,3.152,3.152,0,0,1-3.237-3.049,3.187,3.187,0,0,1,2.555-3.664A3.152,3.152,0,0,1,425.651,176.89Z" transform="translate(-418.866 -161.115)" fill="#2d4cba"/>
      </g>
    </g>
    <g id="Group_1841" data-name="Group 1841" transform="translate(425.55 191.336)">
      <path id="Path_1646" data-name="Path 1646" d="M530.051,170.313,380.485,301.276V481.363H679.617V301.276Z" transform="translate(-380.485 -170.313)" fill="url(#linear-gradient-11)"/>
      <rect id="Rectangle_1452" data-name="Rectangle 1452" width="268.893" height="246.396" transform="translate(15.119 46.069)" fill="url(#linear-gradient-12)"/>
      <g id="Group_1840" data-name="Group 1840" transform="translate(30.517 53.721)">
        <rect id="Rectangle_1455" data-name="Rectangle 1455" width="238.097" height="172.105" transform="translate(0 39.154)" fill="#fff"/>
        <text id="CONTACT_US" data-name="CONTACT US" transform="translate(116.775 16.018)" fill="#eac38f" font-size="15" font-family="OpenSans-Bold, Open Sans" font-weight="700"><tspan x="-47.234" y="0">CONTACT US</tspan></text>
      </g>
      <path id="Path_1647" data-name="Path 1647" d="M530.051,378.506,380.485,264.177v161.5H679.617v-161.5Z" transform="translate(-380.485 -133.214)" fill="#c9d3f4" opacity="0.55" style="mix-blend-mode: multiply;isolation: isolate"/>
      <path id="Path_1648" data-name="Path 1648" d="M530.051,397.12,380.485,264.177V444.263H679.617V264.177Z" transform="translate(-380.485 -133.214)" fill="url(#linear-gradient-13)"/>
      <path id="Path_1649" data-name="Path 1649" d="M530.051,292.189l-149.566,141H679.617Z" transform="translate(-380.485 -122.142)" fill="#c9d3f4" opacity="0.35" style="mix-blend-mode: multiply;isolation: isolate"/>
      <path id="Path_1650" data-name="Path 1650" d="M530.051,302.039,380.485,429.3H679.617Z" transform="translate(-380.485 -118.249)" fill="url(#linear-gradient-14)"/>
    </g>
    <g id="Group_1842" data-name="Group 1842" transform="translate(671.784 444.738)">
      <path id="Path_1651" data-name="Path 1651" d="M558.127,418.319c-3.028-15.776.134-31.976,6.438-45.464,4.123-8.824,13.623-21.116,24.219-20.922,7.876.144,11.181,8.066,11.638,15.2,1.194,18.692-7.589,24.4-7.543,44.61.442-7.654,7.847-32.512,19.411-24.032,11.325,8.3.293,30.61.293,30.61" transform="translate(-556.967 -351.931)" fill="url(#linear-gradient-15)"/>
      <path id="Path_1652" data-name="Path 1652" d="M597.1,381.11c-3.877,6.5-8.677,15.772-9.428,25.677" transform="translate(-544.831 -340.399)" fill="none" stroke="#92d0ff" stroke-miterlimit="10" stroke-width="1"/>
      <path id="Path_1653" data-name="Path 1653" d="M583.544,360.156c-10.689,15.028-14.078,46.741-14.965,54.913" transform="translate(-552.377 -348.681)" fill="none" stroke="#92d0ff" stroke-miterlimit="10" stroke-width="1"/>
    </g>
    <g id="Group_1844" data-name="Group 1844" transform="translate(448.891 213.157)">
      <g id="Group_1843" data-name="Group 1843" transform="translate(25.165 43.469)">
        <path id="Path_1654" data-name="Path 1654" d="M416.469,217.107a9.837,9.837,0,0,0,2.552,1.379,23.033,23.033,0,0,1,4.027-.266c.83.082,2.98.561,3.1.9s-1.946.287-1.895.433,3.865,1.567,3.7,2.142c-.084.29-3.777-1.1-3.777-1.1s4.028,1.4,3.8,1.847-4.048-1.039-4.048-1.039,3.639,1.33,3.442,1.7-3.755-.571-3.755-.571,3.1.675,2.929,1.045c-.086.191-3.483-.239-6.387-1.331a22.114,22.114,0,0,1-4.9-2.684" transform="translate(-415.251 -217.107)" fill="#fc8975"/>
      </g>
      <path id="Path_1655" data-name="Path 1655" d="M424.926,202.162c-3.354,5.111-11.116,11.011-15.4,14.629,2.46,3.337,16.384,13.733,16.384,13.733l-1.292,3.1s-26.539-4.761-27.383-17.866c-.507-7.841,9.419-19.393,17.124-24.821,7.222-5.087,15.677-5.917,20.128-4.11" transform="translate(-397.215 -185.952)" fill="url(#linear-gradient-16)"/>
    </g>
    <g id="Group_1857" data-name="Group 1857" transform="translate(663.359 269.664)">
      <path id="Path_1656" data-name="Path 1656" d="M558.472,241.914c-2.924-1.2-7.092-4.768-6.611-6.8.205-.865,2.266,1.485,2.845.907.38-.381.067-2.121-.989-2.965s-3.244-2.4-2.705-2.938,5.9.654,7.1,2.471a20.541,20.541,0,0,1,2.105,6.456l2.223,2.866" transform="translate(-550.928 -225.053)" fill="#fc8975"/>
      <g id="Group_1845" data-name="Group 1845" transform="translate(50.871 103.887)">
        <path id="Path_1657" data-name="Path 1657" d="M599.156,401.74s-9.129,2.765-9.121,4.848c0,1.193,13.411.88,14.219.071,1.293-1.292-1.148-4.74-1.148-4.74Z" transform="translate(-586.342 -261.058)" fill="#352e72"/>
        <path id="Path_1658" data-name="Path 1658" d="M596.572,398v6a1.827,1.827,0,0,0,1.687,1.077,2.841,2.841,0,0,0,2.263-1.077l.144-7.505" transform="translate(-583.759 -263.133)" fill="#fc8975"/>
        <path id="Path_1659" data-name="Path 1659" d="M589.312,302.519s-4.218,23.369-.162,67.951c2.771,30.451,9.43,67.189,11.406,67.189a33.537,33.537,0,0,0,3.739-.223S615.347,393,615.347,368.1c0-38.337,12.927-47.4,6.506-67.189" transform="translate(-587.388 -300.91)" fill="url(#linear-gradient-17)"/>
        <path id="Path_1660" data-name="Path 1660" d="M595.838,397.2l.46,2.632h5.512l.17-2.632Z" transform="translate(-584.049 -262.853)" fill="#75a1e9"/>
      </g>
      <g id="Group_1846" data-name="Group 1846" transform="translate(69.066 103.887)">
        <path id="Path_1661" data-name="Path 1661" d="M619.55,401.74s-9.129,2.765-9.121,4.848c0,1.193,13.411.88,14.219.071,1.293-1.292-1.148-4.74-1.148-4.74Z" transform="translate(-596.477 -261.058)" fill="#352e72"/>
        <path id="Path_1662" data-name="Path 1662" d="M616.966,398v6a1.827,1.827,0,0,0,1.687,1.077,2.841,2.841,0,0,0,2.263-1.077l.144-7.505" transform="translate(-593.893 -263.133)" fill="#fc8975"/>
        <path id="Path_1663" data-name="Path 1663" d="M600.429,302.519s3.382,29.539,7.53,63.63c1.639,13.468,13.729,69.673,15.225,71.51h5.02s5.952-48.983,5.952-73.882c0-38.336,5.235-43.078-1.186-62.867" transform="translate(-600.429 -300.91)" fill="url(#linear-gradient-17)"/>
        <path id="Path_1664" data-name="Path 1664" d="M616.138,397.2l.461,2.632h5.512l.17-2.632Z" transform="translate(-594.22 -262.853)" fill="#75a1e9"/>
        <path id="Path_1665" data-name="Path 1665" d="M601.67,312.773s3.254,37.766,7.631,59.834" transform="translate(-599.938 -296.221)" fill="none" stroke="#4a578e" stroke-miterlimit="10" stroke-width="0.5"/>
      </g>
      <g id="Group_1847" data-name="Group 1847" transform="translate(6.629 14.086)">
        <path id="Path_1666" data-name="Path 1666" d="M651.951,323.053c0-2.442,1.9-44.557-5.416-54.081-2.069-4.433-9.722-9.453-15.818-11.632-5.377-1.921-8.759-.424-11.207-.071-10.281-2.952-33.793-.978-40.313-4.327-3.589-1.843-20.379-16.394-20.379-16.394l-3.139,2.442s10.03,20.959,21.308,28.284c7.932,5.153,19.7,8.014,25.989,9.26-.091,1.154-.167,2.421-.232,3.831a426.773,426.773,0,0,0-.332,42.694c.082,2.091-2.179,4.762-2.179,6.157s2.718,5.808,25.328,5.808c19.176,0,28.29-2.814,28.29-6.009C653.851,325.718,651.951,325.495,651.951,323.053Z" transform="translate(-555.679 -236.548)" fill="url(#linear-gradient-19)"/>
        <path id="Path_1667" data-name="Path 1667" d="M590.1,259.028s-.424,7.2-.523,8.621" transform="translate(-542.281 -227.663)" fill="none" stroke="#707070" stroke-miterlimit="10" stroke-width="0.5" opacity="0.75" style="mix-blend-mode: multiply;isolation: isolate"/>
      </g>
      <path id="Path_1668" data-name="Path 1668" d="M600.942,232.916c-.858,3.378-2.943,12.666-1.026,15.575,1.895,2.877,6.048,3.7,9.224,2.368a12,12,0,0,0,6.387-7.7,28.615,28.615,0,0,0,.77-10.244" transform="translate(-531.876 -223.898)" fill="#fc8975"/>
      <path id="Path_1669" data-name="Path 1669" d="M603.448,242.578l-1.328,11.261s.483,3.153,2.2,4.357c4.236-.092,6.284-4.127,6.284-4.127l-1.268-14.5" transform="translate(-530.694 -221.268)" fill="#fc8975"/>
      <path id="Path_1670" data-name="Path 1670" d="M612.923,238.592c-2.181-.786-5.176-.5-7.912-.968-1.9-.321-3.933-.363-5.722-1.147-3.258-1.426-2.961-6.348-.307-8.218a3.443,3.443,0,0,1,2.552-.805c.954.22,1.307,1.225,2.151,1.6a2.8,2.8,0,0,0,1.451.2,1.8,1.8,0,0,0,1-.377c.462-.4.654-1.042,1.1-1.471a3.4,3.4,0,0,1,1.588-.808,4.823,4.823,0,0,1,3.789.578,4.787,4.787,0,0,0,1.146.751,11.71,11.71,0,0,1,2.163.553c1.825,1.009,3.005,3.59,3.159,5.588.025.315.546.626.735.847,1.813,2.117,1.938,5.083,1.447,7.7s-1.4,5.122-3.536,6.842a9.581,9.581,0,0,1-2.774,1.194c-3.774,1.332-1.857-9.073-2.031-12.066" transform="translate(-532.75 -226.452)" fill="#352e72"/>
      <path id="Path_1671" data-name="Path 1671" d="M608.849,239.592a1.251,1.251,0,0,1,1.874-.872,1.533,1.533,0,0,1,.758,1.179,2.806,2.806,0,0,1-1.921,2.867c-.491.092-1.017-.532-1.045-1.01" transform="translate(-528.167 -221.679)" fill="#fc8975"/>
      <g id="Group_1852" data-name="Group 1852" transform="translate(71.426 2.292)">
        <g id="Group_1850" data-name="Group 1850" transform="translate(2.079 19.097)">
          <g id="Group_1848" data-name="Group 1848" transform="translate(0.948)">
            <path id="Path_1672" data-name="Path 1672" d="M606.56,245.05a7.306,7.306,0,0,0,1.091-.174,4.778,4.778,0,0,0,2.782-1.779,2.069,2.069,0,0,0,.445-1.14.168.168,0,1,0-.336-.011,1.743,1.743,0,0,1-.381.954,4.458,4.458,0,0,1-2.59,1.649,10.816,10.816,0,0,1-3.1.167.168.168,0,0,0-.018.336A14.813,14.813,0,0,0,606.56,245.05Z" transform="translate(-604.29 -241.782)" fill="#081466"/>
          </g>
          <g id="Group_1849" data-name="Group 1849" transform="translate(0 2.562)">
            <path id="Path_1673" data-name="Path 1673" d="M603.964,243.738a1.243,1.243,0,0,1,.947-.05c1.069.338-.089,1.7-1.056,1a.663.663,0,0,1-.2-.209A.578.578,0,0,1,603.964,243.738Z" transform="translate(-603.61 -243.618)" fill="#081466"/>
          </g>
        </g>
        <g id="Group_1851" data-name="Group 1851">
          <path id="Path_1674" data-name="Path 1674" d="M614.547,239.214a13.787,13.787,0,0,0-2.59-6.831c-1.881-2.351-4.4-4.288-6.81-4.288a7.856,7.856,0,0,0-3.028.466,13.026,13.026,0,0,1,6.581,3.808,11.443,11.443,0,0,1,3.181,7.656" transform="translate(-602.12 -228.095)" fill="#75a1e9"/>
        </g>
        <path id="Path_1675" data-name="Path 1675" d="M606.663,240.08a4.466,4.466,0,1,0,4.926-4.325A4.642,4.642,0,0,0,606.663,240.08Z" transform="translate(-600.336 -225.077)" fill="#75a1e9"/>
        <path id="Path_1676" data-name="Path 1676" d="M608.167,240a2.933,2.933,0,1,0,3.236-2.979A3.122,3.122,0,0,0,608.167,240Z" transform="translate(-599.738 -224.574)" fill="#a2c0ed"/>
      </g>
      <g id="Group_1855" data-name="Group 1855" transform="translate(22.73 34.878)">
        <g id="Group_1853" data-name="Group 1853" transform="translate(0 33.136)">
          <path id="Path_1677" data-name="Path 1677" d="M617.749,304.694H572.6l-4.423-27.277a1.913,1.913,0,0,1,1.888-2.218h40.237a3.128,3.128,0,0,1,3.086,2.627Z" transform="translate(-566.849 -275.199)" fill="#a2c0ed"/>
          <path id="Path_1678" data-name="Path 1678" d="M616.812,304.694H571.666l-4.422-27.277a1.913,1.913,0,0,1,1.888-2.218h40.236a3.128,3.128,0,0,1,3.088,2.627Z" transform="translate(-567.219 -275.199)" fill="url(#linear-gradient-20)"/>
          <path id="Path_1679" data-name="Path 1679" d="M588.411,286.292c-.494-2.3-2.244-3.928-3.908-3.635s-2.616,2.394-2.122,4.694,2.244,3.928,3.908,3.636S588.905,288.593,588.411,286.292Z" transform="translate(-561.278 -272.265)" fill="#abd1ff"/>
        </g>
        <g id="Group_1854" data-name="Group 1854" transform="translate(35.535)">
          <path id="Path_1680" data-name="Path 1680" d="M631.907,262.191c-2.069-4.433-7.534-6.307-13.632-8.486L616.6,274.3c.753,9.39,4.149,22.961,4.149,22.961l-18.878,14.282.028.052a3.153,3.153,0,0,1-.759.4c-.258,0-2.087-1.035-3.058-.868s-2.087.232-2.087.583,1.486.385,1.486.72-1,1-1.458,1a18.422,18.422,0,0,0-3.315,0c-.17.2.572,1.415,1.314,2.072a4.847,4.847,0,0,0,2.387.819,15.927,15.927,0,0,0,5.1-.953c.314-.223,1.1-.659,1.854-1.067l.639,1.182s25.723-2.05,33.466-5.581C637.714,297.228,637.651,269.669,631.907,262.191Z" transform="translate(-592.687 -250.559)" opacity="0.75" fill="url(#linear-gradient-21)" style="mix-blend-mode: multiply;isolation: isolate"/>
          <path id="Path_1681" data-name="Path 1681" d="M603.489,294.44a19.412,19.412,0,0,1-2.344,1.252c-.258,0-2.087-.887-3.058-.744s-2.087.2-2.087.5,1.486.329,1.486.615-1,.854-1.458.854a21.415,21.415,0,0,0-3.315,0c-.17.169.572,1.208,1.314,1.772a5.4,5.4,0,0,0,2.387.7,18.352,18.352,0,0,0,5.1-.815c.688-.42,3.63-1.715,3.63-1.715" transform="translate(-592.687 -234.458)" fill="#fc8975"/>
          <path id="Path_1682" data-name="Path 1682" d="M613.486,251.45s13.212.834,19.49,13.043,4.317,38.225.48,42.062-33.067,8.565-33.067,8.565l-1.116-2.682,20.58-12.86s-6.41-21.483-6.41-30.2" transform="translate(-590.085 -251.45)" fill="url(#linear-gradient-22)"/>
        </g>
      </g>
      <g id="Group_1856" data-name="Group 1856" transform="translate(69.586 32.57)">
        <path id="Path_1683" data-name="Path 1683" d="M603.694,254.088c.95.95,1.353,2.3,2.269,4.244,4.389-1.447,5.767-6.294,5.767-6.294l-1.751-2.078S606.529,253.529,603.694,254.088Z" transform="translate(-599.659 -249.731)" fill="url(#linear-gradient-23)"/>
        <path id="Path_1684" data-name="Path 1684" d="M604.846,254.153a10.23,10.23,0,0,0-2.2,3.589c-1.118-1.118-1.941-5.148-1.829-5.637a27.972,27.972,0,0,1,1.829-2.309A8.2,8.2,0,0,0,604.846,254.153Z" transform="translate(-600.802 -249.796)" fill="url(#linear-gradient-24)"/>
      </g>
    </g>
    <g id="Group_1871" data-name="Group 1871" transform="translate(297.664 266.113)">
      <g id="Group_1860" data-name="Group 1860" transform="translate(44.637 67.027)">
        <g id="Group_1858" data-name="Group 1858">
          <path id="Path_1685" data-name="Path 1685" d="M330.793,400.928s-9.13,2.764-9.122,4.847c.006,1.194,13.412.88,14.22.073,1.293-1.293-1-5.207-1-5.207Z" transform="translate(-320.482 -221.081)" fill="#352e73"/>
          <path id="Path_1686" data-name="Path 1686" d="M328.209,397.1v6a1.827,1.827,0,0,0,1.687,1.077,2.837,2.837,0,0,0,2.263-1.077l.144-7.505" transform="translate(-317.898 -223.076)" fill="#fc8975"/>
          <path id="Path_1687" data-name="Path 1687" d="M334.162,281.137c-6.136,7.933-13.343,30.381-13.343,72.994,0,30.116,9.767,93.191,9.767,93.191l5.581.465c17.847-112.737,11.822-111.571,16.277-131.618,2.79-12.557-2.878-44.222-2.878-44.222" transform="translate(-320.819 -271.947)" fill="url(#linear-gradient-17)"/>
          <path id="Path_1688" data-name="Path 1688" d="M342.415,336.57s-3.849-21.389-3.849-25.76a79.183,79.183,0,0,0,0,28.017c1.222,5.835,2.492,11.536,2.492,11.536Z" transform="translate(-314.298 -256.587)" opacity="0.35" fill="url(#linear-gradient-17)" style="mix-blend-mode: multiply;isolation: isolate"/>
          <path id="Path_1689" data-name="Path 1689" d="M327.648,396.522v2.383s5.835.981,5.835.619.264-2.743.264-2.743Z" transform="translate(-318.12 -222.71)" fill="#75a1e9"/>
        </g>
        <g id="Group_1859" data-name="Group 1859" transform="translate(9.532)">
          <path id="Path_1690" data-name="Path 1690" d="M364.665,400.928s9.129,2.764,9.121,4.847c0,1.194-13.412.88-14.22.073-1.292-1.293,1.006-5.207,1.006-5.207Z" transform="translate(-315.193 -221.081)" fill="#352e73"/>
          <path id="Path_1691" data-name="Path 1691" d="M363.535,397.1l1.024,6a1.83,1.83,0,0,1-1.688,1.077,2.833,2.833,0,0,1-2.262-1.077l-1.168-7.505" transform="translate(-315.086 -223.076)" fill="#fc8975"/>
          <path id="Path_1692" data-name="Path 1692" d="M357.448,277.56c6.046,10.174,16.765,31.145,16.765,73.757,0,30.118-.793,95.984-.793,95.984l-4.788.486c-15.416-43.042-28.254-97.888-31.265-129.839-1.207-12.807,1.1-46,1.1-46" transform="translate(-323.949 -271.947)" fill="url(#linear-gradient-17)"/>
          <path id="Path_1693" data-name="Path 1693" d="M361.862,278.175a172.325,172.325,0,0,0-19.832-4.708c-.015.248-.032.508-.05.794l-10.519,6.276a32.745,32.745,0,0,0-3.81,6.708,47.735,47.735,0,0,0,13.486,3.022c8.7.776,19.579-.924,25.16-3.533C364.732,283.313,363.207,280.5,361.862,278.175Z" transform="translate(-327.651 -271.346)" opacity="0.35" fill="url(#linear-gradient-17)" style="mix-blend-mode: multiply;isolation: isolate"/>
          <path id="Path_1694" data-name="Path 1694" d="M365.49,396.2v2.383s-6.124.979-6.124.618-.276-2.743-.276-2.743Z" transform="translate(-315.225 -222.836)" fill="#75a1e9"/>
        </g>
      </g>
      <g id="Group_1864" data-name="Group 1864" transform="translate(0 2.933)">
        <g id="Group_1861" data-name="Group 1861" transform="translate(135.589 40.297)">
          <path id="Path_1695" data-name="Path 1695" d="M386.006,261.874l1.976-1.076a13.148,13.148,0,0,1,1.125-2.843c.359-.664,1.525-2.306,1.875-2.306s-.4,1.7-.25,1.7,2.742-2.742,3.209-2.433c.236.156-2.284,2.809-2.284,2.809s2.651-2.926,2.976-2.6-2.326,3.051-2.326,3.051,2.45-2.626,2.725-2.351-2.175,2.8-2.175,2.8,2.227-2.221,2.326-1.976c.149.375-1.139,2.038-3.3,4.2-.375.375-1.825,1.5-1.925,1.6s-2.274,2.376-2.274,2.376" transform="translate(-386.006 -254.891)" fill="#fc8975"/>
          <path id="Path_1696" data-name="Path 1696" d="M389.711,256.932a4.682,4.682,0,0,1-.232,2.548,3.585,3.585,0,0,1-1.019,1.159" transform="translate(-385.036 -254.084)" fill="none" stroke="#cc6658" stroke-miterlimit="10" stroke-width="0.5"/>
        </g>
        <g id="Group_1862" data-name="Group 1862">
          <path id="Path_1697" data-name="Path 1697" d="M295.23,235.65l-1.381-1.775a13.086,13.086,0,0,0,.1-3.057c-.063-.752-.476-2.724-.8-2.863s-.312,1.718-.451,1.658-1.419-3.608-1.969-3.513c-.279.049.971,3.488.971,3.488s-1.261-3.741-1.69-3.573.914,3.725.914,3.725-1.2-3.385-1.56-3.243.876,3.437.876,3.437-1.155-2.927-1.344-2.74c-.287.283.229,2.323,1.348,5.169.194.494,1.074,2.1,1.126,2.237s1.137,3.086,1.137,3.086" transform="translate(-288.827 -226.009)" fill="#fc8975"/>
          <path id="Path_1698" data-name="Path 1698" d="M291.757,228.863a4.693,4.693,0,0,0-.805,2.428,3.6,3.6,0,0,0,.47,1.471" transform="translate(-287.988 -224.881)" fill="none" stroke="#cc6658" stroke-miterlimit="10" stroke-width="0.5"/>
        </g>
        <g id="Group_1863" data-name="Group 1863" transform="translate(2.431 8.113)">
          <path id="Path_1699" data-name="Path 1699" d="M425.124,270.147s-20,7.37-24.541,7.37c-3.749,0-10.135-10.129-18.974-17.033a50.209,50.209,0,0,0-11.741-6.636l-16.693-.349a132.876,132.876,0,0,0-15.162,1.215c-8.3,1.127-16.09.756-19.713-.866-7.011-3.139-24.548-21.988-24.548-21.988a3.686,3.686,0,0,0-3.183,1.161c0,.932,9.027,26.7,20.929,34.418,8.755,5.677,21.51,6.606,29.474,6.552V279.3c0,2.616-3.127,15.51.569,19.2,3.395,3.395,16.348,3.817,21.406,3.817,7.5,0,15.173-1.19,17.092-3.817.961-1.317.816-7.186.52-12.564,6,3.775,11.423,7.537,18.346,7.537,12.962,0,28.21-20.276,28.21-20.276Z" transform="translate(-290.569 -231.824)" fill="url(#linear-gradient-29)"/>
          <path id="Path_1700" data-name="Path 1700" d="M356.822,275.955l-.168-3.74-5.6-5.671Z" transform="translate(-266.664 -218.101)" opacity="0.75" fill="url(#linear-gradient-29)" style="mix-blend-mode: multiply;isolation: isolate"/>
          <path id="Path_1701" data-name="Path 1701" d="M327.574,264.344c0-.664,1.127-7.088,1.127-8.111-1.683,3.623-4.235,8.08-4.235,8.08Z" transform="translate(-277.171 -222.177)" opacity="0.75" fill="url(#linear-gradient-31)" style="mix-blend-mode: multiply;isolation: isolate"/>
        </g>
      </g>
      <g id="Group_1870" data-name="Group 1870" transform="translate(50.335)">
        <path id="Path_1702" data-name="Path 1702" d="M350.279,226.094c4.71,2.936,3.905,8.939,5.811,12.694,1.377,2.712,3.537,5.013,3.739,8.235.222,3.517-4.35,5.161-6.8,4.781-4.8-.742-8.918,1.7-13.752,1.115-3.293-.4-2.051-2.051-4.2-4.579a9.8,9.8,0,0,1-2.107-5.51,23.273,23.273,0,0,1,.427-5.96" transform="translate(-321.737 -223.043)" fill="#f42a73"/>
        <path id="Path_1703" data-name="Path 1703" d="M340.569,241.807l-.938,8.641-4.191.649s2.923,5.274,7.573,5.274,9.119-4.925,9.119-4.925l-4.543-1.406L345.862,237.9" transform="translate(-320.739 -218.376)" fill="#fc8975"/>
        <path id="Path_1704" data-name="Path 1704" d="M334.277,232.385a27.86,27.86,0,0,0,.089,8.669c.632,2.832,2.327,5.585,4.988,6.742a10.791,10.791,0,0,0,3.844.755,9.593,9.593,0,0,0,6.312-1.5,8.023,8.023,0,0,0,2.684-6.918,23.642,23.642,0,0,0-2.151-7.385q-1.375-3.326-2.753-6.651" transform="translate(-321.316 -223.043)" fill="#fc8975"/>
        <path id="Path_1705" data-name="Path 1705" d="M327.1,244.755c-.917,1.132-2.027,2.258-2.182,3.7A3.536,3.536,0,0,0,327,251.915a6.768,6.768,0,0,0,3.48.264,15.518,15.518,0,0,1,4.028.162c1.127.222,2.209.632,3.315.947a11.471,11.471,0,0,0,5.03.438.966.966,0,0,0,.744-.4,1.089,1.089,0,0,0-.151-.922,13.978,13.978,0,0,1-.854-7.1,18.982,18.982,0,0,1,.59-3.664,21.1,21.1,0,0,1,1.132-2.9c.822-1.805,1.845-3.537,2.624-5.355.759-1.811,1.235-4.61,3.77-4.243,1.632.237,2.326,2.87,3.411,4.473,1.613-1.842,3.427-2.958-.008-7.321-1.719-2.184-4.648-2.064-7.245-1.589-1.459-.1-1.358-.67-2.817-.769-4.765-.324-9.891,2.922-11.978,7.287C329.74,236.094,330.283,240.831,327.1,244.755Z" transform="translate(-324.903 -223.907)" fill="#f42a73"/>
        <g id="Group_1869" data-name="Group 1869" transform="translate(8.647 0.022)">
          <g id="Group_1867" data-name="Group 1867" transform="translate(5.598 19.097)">
            <g id="Group_1865" data-name="Group 1865">
              <path id="Path_1706" data-name="Path 1706" d="M339.431,240.878a7.3,7.3,0,0,1-1.091-.176,4.778,4.778,0,0,1-2.782-1.779,2.064,2.064,0,0,1-.445-1.14.168.168,0,0,1,.336-.011,1.743,1.743,0,0,0,.381.954,4.458,4.458,0,0,0,2.59,1.649,10.868,10.868,0,0,0,3.1.169.168.168,0,1,1,.018.335A14.8,14.8,0,0,1,339.431,240.878Z" transform="translate(-335.113 -237.61)" fill="#081466"/>
            </g>
            <g id="Group_1866" data-name="Group 1866" transform="translate(5.808 2.561)">
              <path id="Path_1707" data-name="Path 1707" d="M340.65,239.565a1.25,1.25,0,0,0-.947-.05c-1.069.339.089,1.7,1.056,1a.659.659,0,0,0,.2-.208A.579.579,0,0,0,340.65,239.565Z" transform="translate(-339.276 -239.446)" fill="#081466"/>
            </g>
          </g>
          <g id="Group_1868" data-name="Group 1868" transform="translate(2.787)">
            <path id="Path_1708" data-name="Path 1708" d="M333.1,235.04a13.786,13.786,0,0,1,2.59-6.831c1.881-2.351,4.4-4.286,6.81-4.286a7.877,7.877,0,0,1,3.028.465,13.029,13.029,0,0,0-6.581,3.809,11.438,11.438,0,0,0-3.181,7.656" transform="translate(-333.098 -223.923)" fill="#081466"/>
          </g>
          <path id="Path_1709" data-name="Path 1709" d="M339.987,235.907a4.466,4.466,0,1,1-4.927-4.325A4.642,4.642,0,0,1,339.987,235.907Z" transform="translate(-331.101 -220.905)" fill="#081466"/>
          <path id="Path_1710" data-name="Path 1710" d="M337.61,235.824a2.933,2.933,0,1,1-3.236-2.979A3.124,3.124,0,0,1,337.61,235.824Z" transform="translate(-330.824 -220.402)" fill="#2d4cba"/>
        </g>
      </g>
    </g>
    <g id="Group_1872" data-name="Group 1872" transform="translate(293.181 166.322)">
      <path id="Path_1711" data-name="Path 1711" d="M535.795,152.476l-7.008,2.933a1.133,1.133,0,0,0-.3,1.906l5.024,4.324a1.134,1.134,0,0,0,1.833-.561l1.984-7.257A1.134,1.134,0,0,0,535.795,152.476Z" transform="translate(-189.776 -152.385)" fill="none" stroke="#7d2ba4" stroke-miterlimit="10" stroke-width="1"/>
      <path id="Path_1712" data-name="Path 1712" d="M317.655,218.468l2.055,7.314a1.133,1.133,0,0,0,1.854.532l4.906-4.459a1.133,1.133,0,0,0-.333-1.888l-6.959-2.855A1.134,1.134,0,0,0,317.655,218.468Z" transform="translate(-272.967 -126.837)" fill="none" stroke="#7d2ba4" stroke-miterlimit="10" stroke-width="1"/>
      <path id="Path_1713" data-name="Path 1713" d="M638.027,283.657l5.384-5.359a1.134,1.134,0,0,0-.44-1.879l-6.284-2.11a1.133,1.133,0,0,0-1.486,1.21l.9,7.47A1.135,1.135,0,0,0,638.027,283.657Z" transform="translate(-147.445 -104.219)" fill="none" stroke="#7d2ba4" stroke-miterlimit="10" stroke-width="1"/>
      <path id="Path_1714" data-name="Path 1714" d="M619.155,221.884l1.979,7.335a1.135,1.135,0,0,0,1.85.553l4.952-4.408a1.134,1.134,0,0,0-.314-1.892l-6.93-2.929A1.135,1.135,0,0,0,619.155,221.884Z" transform="translate(-153.799 -125.482)" fill="none" stroke="#7d2ba4" stroke-miterlimit="10" stroke-width="1"/>
      <rect id="Rectangle_1456" data-name="Rectangle 1456" width="4.343" height="4.343" transform="translate(438.742 84) rotate(-37.391)" fill="#cfe0f5"/>
      <rect id="Rectangle_1457" data-name="Rectangle 1457" width="4.343" height="4.343" transform="matrix(0.999, -0.044, 0.044, 0.999, 406.554, 51.751)" fill="#cfe0f5"/>
      <rect id="Rectangle_1458" data-name="Rectangle 1458" width="4.343" height="4.343" transform="matrix(0.932, -0.363, 0.363, 0.932, 127.909, 109.369)" fill="#cfe0f5"/>
      <rect id="Rectangle_1459" data-name="Rectangle 1459" width="4.343" height="4.343" transform="translate(171.047 2.004) rotate(20.972)" fill="#cfe0f5"/>
      <rect id="Rectangle_1460" data-name="Rectangle 1460" width="4.343" height="4.343" transform="matrix(0.999, -0.044, 0.044, 0.999, 0, 218.969)" fill="#cfe0f5"/>
    </g>
    <rect id="Rectangle_1461" data-name="Rectangle 1461" width="128" height="9" transform="translate(475.843 310.075)" fill="#dbe7f5"/>
    <rect id="Rectangle_1464" data-name="Rectangle 1464" width="47" height="9" transform="translate(475.843 291.075)" fill="#dbe7f5"/>
    <rect id="Rectangle_1462" data-name="Rectangle 1462" width="162" height="9" transform="translate(475.843 329.075)" fill="#dbe7f5"/>
    <rect id="Rectangle_1463" data-name="Rectangle 1463" width="193" height="9" transform="translate(475.843 348.075)" fill="#dbe7f5"/>
  </g>
</svg>
