<?xml version="1.0" encoding="UTF-8"?>
<svg width="500" height="500" viewBox="0 0 500 500" fill="none" xmlns="http://www.w3.org/2000/svg">
  <!-- Background Circle -->
  <circle cx="250" cy="250" r="240" fill="#F8F9FA" stroke="#d1cdd8" stroke-width="4"/>
  
  <!-- Code Brackets -->
  <path d="M150 200L100 250L150 300" stroke="#7d2ba4" stroke-width="8" stroke-linecap="round"/>
  <path d="M350 200L400 250L350 300" stroke="#7d2ba4" stroke-width="8" stroke-linecap="round"/>
  
  <!-- Profile Head -->
  <circle cx="250" cy="200" r="80" fill="#E9ECEF"/>
  
  <!-- Profile Face -->
  <circle cx="220" cy="190" r="8" fill="#6C757D"/>
  <circle cx="280" cy="190" r="8" fill="#6C757D"/>
  <path d="M220 220C220 220 230 240 250 240C270 240 280 220 280 220" stroke="#6C757D" stroke-width="4" stroke-linecap="round"/>
  
  <!-- Code Lines -->
  <rect x="120" y="350" width="260" height="8" rx="4" fill="#E9ECEF"/>
  <rect x="120" y="370" width="200" height="8" rx="4" fill="#E9ECEF"/>
  <rect x="120" y="390" width="180" height="8" rx="4" fill="#E9ECEF"/>
  
  <!-- Decorative Elements -->
  <circle cx="100" cy="100" r="10" fill="#d1cdd8" />
  <circle cx="400" cy="400" r="15" fill="#d1cdd8" />
  <circle cx="400" cy="100" r="12" fill="#d1cdd8" />
  <circle cx="100" cy="400" r="8" fill="#d1cdd8" />
</svg> 